<svg xmlns="http://www.w3.org/2000/svg" viewBox="0 0 1920 2107" width="1920" height="2107">
	<style>
		tspan { white-space:pre }
		.shp0 { fill: #000000 } 
	</style>
	<g id="Layer">
		<path id="Layer" fill-rule="evenodd" class="shp0" d="M558.5 0.1L982.4 0L1406.3 0L1416.2 6.1C1427.1 12.9 1435.5 19.1 1450.1 31.4C1466.7 45.4 1473.8 50.4 1480.1 52.7C1483.5 54 1488.1 56.1 1490.4 57.4C1495 60.1 1504.6 69.8 1507.4 74.5C1508.8 76.8 1510.8 78.2 1515.8 80C1525.5 83.4 1544.2 93 1554 99.6C1576.7 114.7 1600.9 138.3 1619.6 163.5C1622.9 167.9 1628.9 174.6 1632.9 178.5C1647.7 192.5 1660.5 209.4 1670 227.5C1672.9 233 1676.1 238.6 1677 240C1678.9 242.7 1683 250.6 1683 251.4C1683 251.7 1682.3 251.7 1681.3 251.3C1680.4 251 1683.2 254.7 1687.4 259.6C1695 268.4 1705.7 283 1704.5 283C1704.2 283 1702.5 282.3 1700.8 281.4C1699.2 280.5 1698 280.2 1698.3 280.7C1698.5 281.1 1700.6 284.5 1702.9 288.2C1708.7 297.9 1713.6 307.8 1718 319.2C1720.6 325.7 1724.6 333.1 1729.8 340.8C1739.6 355.3 1746.3 367.2 1754.2 383.6C1757.5 390.6 1762 399 1764.1 402.2C1771.7 414 1783.7 439.6 1785.4 447.5C1786 450.4 1785.8 450.3 1781.5 445.5C1779 442.8 1777 440.9 1777 441.2C1777 441.6 1780.2 447.5 1784.1 454.2C1810 499.1 1829.5 551.5 1835.5 592.5C1836.5 599.4 1839.3 610.3 1843 622C1846.3 632.2 1849.6 642.9 1850.5 645.9C1851.3 648.9 1854.4 657.2 1857.4 664.4C1875.5 707.8 1884 746.6 1884 785C1884 825.8 1875.5 860.1 1856.1 897.6C1852.3 904.8 1849 912.4 1848.6 914.5C1846.9 923.4 1834.6 953.9 1833.2 952.5C1832.9 952.3 1830.4 956.3 1827.5 961.5C1824.6 966.7 1820.2 974 1817.6 977.7L1812.9 984.6L1813 1001.5C1813.1 1010.9 1813.2 1026.6 1813.3 1036.5C1813.4 1055.2 1812.8 1060.2 1807.8 1077.5C1801.2 1100.7 1789.6 1126.4 1774.8 1150.6C1771.7 1155.5 1767.5 1162.9 1765.4 1167C1750.6 1195.8 1735.2 1214.7 1708 1237.5C1702.8 1241.9 1698.1 1246 1697.5 1246.6C1695.2 1249 1683.2 1258.9 1678.9 1261.8C1671.5 1266.8 1648.7 1280 1647.4 1280C1646.8 1280 1645 1281.2 1643.4 1282.6C1638.3 1287.1 1627 1294.1 1620.7 1296.7C1612.1 1300.1 1601.7 1310.3 1600 1316.9C1598.3 1323.5 1592.7 1333.7 1587.5 1339.7C1579.1 1349.3 1564.9 1357 1552.9 1358.5C1547.6 1359.2 1546.9 1359.6 1538.4 1367.7C1533.5 1372.3 1521.1 1382.9 1510.9 1391.1L1492.3 1406L1491.6 1412.3C1489.7 1430.8 1480.3 1486 1479 1486C1478.6 1486 1477.4 1481.8 1476.4 1476.7C1475.4 1471.7 1474.4 1468.4 1474.2 1469.5C1473.6 1472.8 1473 1474.3 1472.4 1473.7C1472 1473.4 1470.6 1468.3 1469.1 1462.5L1466.4 1451.8L1464.4 1463.7C1462 1478.4 1461.7 1519.9 1463.9 1531.8C1465.1 1538.5 1464.9 1541.3 1463.4 1539.7C1463.1 1539.4 1462.2 1536.3 1461.4 1532.8C1458.6 1519.4 1456.9 1503.2 1456.7 1487.4C1456.5 1472.5 1456.4 1471.2 1455.2 1474.1C1451.2 1483.8 1448 1516.8 1447.4 1555C1447.1 1571.8 1446.6 1586.2 1446.3 1587C1445 1590.5 1444.1 1581.5 1442.8 1554.2C1441.8 1532.3 1441.4 1526.9 1440.8 1531.5C1439.4 1542.6 1439.8 1568 1441.5 1575.8C1442.3 1579.8 1443 1584.6 1443 1586.3C1443 1590.6 1449 1614.4 1453.4 1627.3C1458.9 1643.6 1463 1674.1 1463 1699.3L1463 1711.2L1466.3 1710.5C1476.8 1708.2 1492.4 1700.5 1504.4 1691.7C1508.9 1688.4 1517.6 1680.5 1523.8 1674.2C1530 1667.9 1535.3 1663 1535.6 1663.3C1536.4 1664.1 1528.9 1674.8 1520.4 1685C1510 1697.4 1495.4 1709.7 1484.2 1715.4C1482.3 1716.4 1481.1 1717.4 1481.4 1717.7C1482.4 1718.8 1500.8 1709 1508.6 1703.2C1512.9 1700 1519.5 1694.1 1523.2 1690.2C1526.9 1686.2 1530.2 1683 1530.5 1683C1533.6 1683 1522.9 1697.9 1512.3 1708.4C1504.2 1716.4 1491.4 1725.2 1480.8 1730C1476.5 1731.9 1473.1 1733.8 1473 1734.1C1473 1735.3 1489.5 1739.9 1498 1741C1502.7 1741.7 1510.1 1741.9 1514.5 1741.5C1521.2 1741 1524 1740.1 1531.5 1736.4C1546.5 1729 1560.2 1717.5 1572.5 1702C1575.7 1697.9 1578.6 1694.3 1578.7 1694.1C1578.9 1693.9 1579.3 1693.9 1579.6 1694.2C1581.2 1695.9 1569.1 1713.7 1559.1 1724.3C1552.6 1731.3 1546.3 1739 1544.5 1742C1544 1742.8 1546.5 1741.2 1550 1738.4C1556.2 1733.5 1567.5 1721.5 1569.8 1717.4C1570.4 1716.4 1571.2 1715.8 1571.6 1716.3C1572.4 1717 1571.4 1719.4 1568 1725C1566.4 1727.6 1567.2 1727 1571.5 1722.5C1577.6 1715.9 1586.5 1703.2 1590.1 1695.7C1592.3 1691.2 1594 1689.7 1594 1692.2C1594 1692.9 1592.4 1696.8 1590.5 1701C1588.6 1705.1 1585.7 1712.1 1584.1 1716.5C1579.9 1727.5 1571 1740.9 1561.2 1750.8C1554.8 1757.2 1553.5 1759 1555.1 1759C1558.9 1759 1556.5 1761.2 1549.5 1764.1C1545.6 1765.6 1543.3 1766.9 1544.2 1766.9C1548.3 1767.1 1546.4 1769 1539.7 1771.5C1532.7 1774.1 1507.5 1780.1 1497.6 1781.5L1492.8 1782.3L1497.6 1785.3C1503.7 1789.1 1525.5 1799.6 1529.3 1800.5C1532.2 1801.3 1533 1803 1530.5 1803C1526.2 1803 1503.5 1792.9 1491.4 1785.6C1488.2 1783.6 1485.2 1782 1484.7 1782C1482.8 1782 1488.1 1787.8 1494.8 1793.2C1509.5 1804.8 1528.7 1811.9 1551.6 1814C1577.5 1816.5 1609.9 1810.1 1637.1 1797.4C1642.6 1794.8 1647.3 1793 1647.6 1793.3C1649 1794.6 1628.3 1805.9 1614.5 1811.4C1604.5 1815.3 1583.5 1821 1578.9 1821C1577.3 1821 1576 1821.4 1576 1822C1576 1822.5 1577.9 1823 1580.3 1823.1C1582.6 1823.1 1586.3 1823.5 1588.5 1823.9L1592.5 1824.7L1586.5 1827.4C1577.9 1831.4 1550 1842.2 1540 1845.5C1535.3 1847.1 1531.1 1848.7 1530.5 1849.2C1529.7 1849.9 1539.6 1849.5 1544.3 1848.5C1546.8 1848 1546.4 1849.7 1543.8 1850.3C1542.5 1850.6 1533.5 1852.7 1523.7 1855.1C1508.2 1858.8 1506.2 1859.5 1507.9 1860.6C1510.6 1862.5 1524.4 1867 1527.5 1867C1529.6 1867 1530.1 1867.4 1529.8 1869.2C1529.6 1871 1530.2 1871.6 1533.5 1872.6C1543.2 1875.6 1556 1873.7 1568 1867.4C1571.8 1865.5 1575.4 1864.1 1576 1864.5C1577.8 1865.6 1552 1877.1 1529 1885.5C1523.2 1887.6 1518.1 1889.6 1517.7 1890.1C1516.6 1891 1525.5 1893 1533.9 1893.7C1545.5 1894.8 1566 1890.5 1580.2 1884.2C1587.1 1881.1 1599.6 1873.2 1604 1869.3C1605.4 1868.1 1610.3 1865.1 1615 1862.7C1625.4 1857.4 1633.2 1852.3 1638.5 1847.4C1643.1 1843.2 1642 1843.6 1633.5 1849.5C1625.3 1855.2 1615.5 1861 1614.1 1861C1612.9 1861 1617.6 1854.6 1621.5 1850.8C1622.6 1849.8 1627.6 1846.2 1632.5 1843C1637.5 1839.8 1643.1 1835.5 1645 1833.5L1648.5 1829.9L1640 1833.9C1628.2 1839.4 1627.7 1839.4 1629.5 1834.8C1630 1833.5 1629.7 1833.3 1627.8 1833.7C1625.8 1834.3 1626 1833.8 1629.3 1830.4C1631.3 1828.3 1632.8 1825.9 1632.5 1825.2C1632.2 1824.5 1632.4 1824.1 1632.9 1824.5C1633.9 1825 1637.2 1820.2 1638.9 1815.8L1639.9 1813.2L1635.2 1815.2C1632.6 1816.3 1628.6 1818.4 1626.3 1819.7C1618.8 1824 1621.7 1820.7 1631.3 1813.8C1641.1 1806.8 1656.5 1792.9 1660.2 1787.7L1662.4 1784.6L1658 1787.7C1649.3 1793.6 1649.3 1792.9 1657.8 1784.2C1662.6 1779.4 1666.8 1775.9 1667.2 1776.4C1668 1777.6 1684.7 1762.5 1687.3 1758.3C1688.3 1756.5 1689.6 1755.3 1690.2 1755.6C1690.7 1755.9 1692.5 1755 1694.1 1753.4C1699.5 1748.2 1698.4 1752 1692.8 1757.8C1689.8 1760.9 1685.6 1766.6 1683.6 1770.5C1681.6 1774.3 1677.3 1781.1 1674.1 1785.5C1667.5 1794.4 1658.7 1808 1659.6 1808C1659.9 1808 1663.1 1805.9 1666.8 1803.3C1682.2 1792.5 1685.6 1788.7 1690.5 1777C1692 1773.4 1694.1 1769.9 1695.1 1769.2C1696.1 1768.5 1697 1767.3 1697 1766.6C1697 1765.9 1698.5 1762.3 1700.4 1758.4C1702.3 1754.6 1704.6 1748.9 1705.6 1745.7C1707.2 1740.6 1709 1738.1 1709 1741.1C1709 1743.3 1705 1755.8 1701.9 1763.1C1700.2 1767.2 1697 1775.7 1694.8 1782C1692.6 1788.3 1688.6 1797.7 1685.9 1802.9L1681 1812.2L1681.8 1820.4C1682.9 1832.8 1682.3 1856.2 1680.5 1868.4C1678.8 1880.2 1674.1 1896 1670.5 1902.5C1669.3 1904.7 1666.8 1909.2 1665 1912.5C1663.2 1915.8 1661.3 1919.1 1660.7 1919.8C1658.9 1922.1 1659 1920.4 1660.9 1915.9C1663.8 1909.3 1667.1 1896 1666.2 1894.3C1665.6 1893.3 1664.5 1894.1 1662 1897.7C1650.5 1913.6 1629.3 1935.8 1613.4 1948.6C1589.1 1968.1 1561.6 1981.3 1533.8 1987C1518.7 1990 1492.9 1989.9 1478.8 1986.6C1475.6 1985.9 1473.3 1985.6 1473.5 1986C1474.1 1986.9 1487 1991.5 1494 1993.3C1497.3 1994.1 1501.6 1996.3 1504.5 1998.4C1517.1 2008.1 1531.6 2012.9 1550 2013.7C1557.5 2014 1564.5 2014.8 1567.5 2015.8C1575.1 2018.2 1591.5 2017.9 1601.3 2015.2C1625.6 2008.3 1644.5 1991.3 1657 1964.7C1659.7 1959 1662.7 1953.7 1663.6 1952.9C1666.8 1950.2 1679.2 1933.6 1684.1 1925.2C1692.8 1910.5 1701.6 1887.7 1703.4 1875C1704 1871 1703.6 1871.5 1700.2 1879.5C1698.1 1884.4 1694.7 1891.6 1692.7 1895.5C1688.7 1903.4 1678 1920.9 1678 1919.7C1678 1919.3 1679.5 1914.5 1681.4 1909.2C1687.1 1892.6 1686.8 1891.3 1679.8 1903.8C1673.7 1915 1670.8 1917.4 1674.9 1908.1C1678.1 1900.6 1683.3 1884 1682.5 1884C1682.2 1884 1680.4 1887.2 1678.4 1891.1C1676.5 1895 1674.6 1898 1674.4 1897.7C1674.1 1897.4 1675.3 1893.9 1677.1 1889.8C1680.3 1882.6 1684.4 1867.1 1683.1 1866.9C1682.8 1866.9 1683.5 1866.5 1684.7 1866C1686.4 1865.3 1687.3 1863.1 1689.5 1853.3C1691 1846.8 1692.8 1838.9 1693.6 1835.7C1694.4 1832.5 1695 1829 1695 1827.9C1695 1826.9 1695.5 1826 1696 1826C1696.6 1826 1697 1830 1697.1 1835.7C1697.1 1841.1 1697.5 1847.7 1697.8 1850.5L1698.5 1855.5L1700.8 1846.2C1702.1 1841 1703.4 1832.8 1703.7 1827.9C1704 1823 1704.7 1818.7 1705.3 1818.3C1705.9 1817.9 1706.1 1824.9 1705.7 1838.1C1705.3 1853.9 1705.4 1857.7 1706.2 1854.8C1706.9 1852.7 1707.7 1851 1708.1 1851C1709.5 1851 1710.3 1862.4 1709.7 1874.5C1708.7 1893.8 1703.2 1911.7 1692.9 1928.7L1690.7 1932.5L1693.4 1930L1696.1 1927.6L1693.5 1934.5C1689.8 1944.2 1682.9 1957 1676.2 1966.4C1668.8 1976.7 1623 2023 1617.3 2025.9C1611.8 2028.6 1596.8 2030 1571.8 2030C1555.6 2030 1549.7 2029.6 1537.8 2027.6C1516.1 2023.9 1498.3 2018.2 1471.1 2006.3C1468.8 2005.3 1475.4 2014.1 1480.7 2019.1C1491.6 2029.5 1500.2 2035 1513.9 2040.7C1518.6 2042.6 1525.2 2045.5 1528.5 2047C1541.9 2053.3 1548 2054.5 1566.5 2054.5C1586.3 2054.5 1592.9 2053.1 1608.2 2045.4C1618 2040.6 1622.6 2037.4 1630.5 2030C1634.2 2026.5 1637.3 2024.7 1642.5 2023C1652 2020 1673.3 2009.3 1678.1 2005.2C1680.2 2003.4 1685.2 1997.5 1689.1 1992.2C1693.1 1986.9 1696.8 1982 1697.3 1981.5C1698.3 1980.5 1697.6 1987.1 1696.3 1990.7C1694.3 1996.5 1713 1974.2 1723 1959C1733.8 1942.6 1743.9 1920.2 1747.1 1905.7C1748.3 1899.9 1750 1898 1750 1902.4C1750 1906.6 1745.1 1923.7 1740.9 1934.3C1733.4 1953.3 1720.2 1975.2 1706.4 1991.5C1702.5 1996.2 1701.3 1998 1703.5 1996C1709.1 1990.8 1722.5 1973.8 1729.7 1962.8C1738.7 1949 1747.8 1930.9 1754 1914.6C1754.5 1913.1 1755.4 1912.1 1755.9 1912.5C1756.9 1913 1753.3 1924.3 1748.5 1936C1740.3 1955.8 1725.6 1980.3 1712.5 1996C1704.5 2005.6 1687.1 2022.4 1680.2 2027C1675.1 2030.5 1673.4 2032.8 1676.8 2031.6C1679.1 2030.8 1671.7 2037.3 1665.5 2041.5C1662.8 2043.4 1659.2 2046 1657.5 2047.5L1654.5 2050L1659.8 2048C1684.1 2038.8 1711.6 2016.8 1734.3 1988.5C1743.4 1977.2 1757.6 1956.2 1764.6 1943.7C1767.3 1939.1 1769 1937.7 1769 1940.3C1769 1942.3 1753.5 1969.5 1745.7 1981C1708.6 2036.4 1666.5 2065.1 1615 2070C1609.8 2070.5 1602.6 2071.7 1599 2072.5C1590.1 2074.6 1561 2075.6 1549.5 2074.1C1544.6 2073.5 1534.7 2071.6 1527.7 2069.8C1519.3 2067.7 1514.4 2067 1513.6 2067.6C1512.9 2068.1 1509.2 2070.9 1505.4 2073.7C1496.6 2080.4 1488.8 2083.5 1473 2086.7C1448.2 2091.6 1431.3 2087.6 1414.2 2072.5C1410.7 2069.5 1407.3 2067 1406.7 2067C1404.4 2067 1393.1 2061.1 1385.5 2056C1360.2 2038.9 1343.7 2010.6 1338 1974.3C1337.4 1970.6 1335.7 1964.6 1334.3 1961C1323.2 1933.2 1318 1895.1 1320 1856C1321 1836.8 1323.1 1822.2 1328.9 1794.1C1331.1 1783.9 1333.1 1773 1333.4 1770C1334.6 1760 1338 1740.7 1341.4 1724.5C1344.1 1712.3 1345.3 1702.4 1346.9 1682.5C1348.1 1668.2 1349.5 1651.1 1350 1644.5C1351.6 1627.1 1355.6 1600.1 1358.5 1588C1361 1577.8 1362.6 1564.1 1365 1531.5C1365.6 1522.7 1366.7 1509.2 1367.5 1501.5C1368.2 1493.8 1369.1 1483.7 1369.5 1479L1370.1 1470.5L1366.1 1477C1363.9 1480.6 1361.2 1485.1 1360.1 1487C1358.3 1490.2 1353.1 1497.7 1344.8 1509C1331 1527.9 1308.7 1551.4 1288.5 1568.4C1246.2 1604.1 1205.4 1622.7 1158 1628.1C1140.8 1630 1104.9 1628.8 1085.9 1625.7C1061.3 1621.6 1034.8 1614.3 1011.2 1604.9C1007.2 1603.3 1003.4 1602.3 1002.8 1602.6C1002.2 1603 1001.9 1602.9 1002.2 1602.4C1002.6 1601.9 998.7 1599.7 993.7 1597.6C974.3 1589.2 951 1576.7 928.7 1562.6C921.6 1558.1 915.1 1554 914.2 1553.5C913.3 1552.9 912.3 1552.3 912 1552C911.7 1551.7 907 1548.5 901.5 1544.8C886.4 1534.7 878.2 1529 870.8 1523.5C852.6 1510.1 845.7 1504.8 836.6 1497.5C831.2 1493.1 824.4 1487.7 821.5 1485.5C818.7 1483.3 811.3 1477.1 805.2 1471.7C798.4 1465.7 793.6 1462.1 792.9 1462.6C792.2 1463 792 1462.9 792.4 1462.2C793.1 1461 778.5 1447.3 776.9 1447.8C776.3 1447.9 776.1 1447.7 776.4 1447.2C777.2 1445.9 768.4 1437.7 767.1 1438.5C766.5 1438.8 766.1 1438.7 766.2 1438.2C766.4 1437.6 757.1 1427.6 745.5 1415.8C722.4 1392.4 700.2 1368.4 691.5 1357.5C685.7 1350.3 673.5 1332.3 668.5 1323.7C667 1321.1 665.3 1319.3 664.8 1319.7C664.2 1320 664 1319.9 664.3 1319.3C664.7 1318.7 660.9 1310.2 655.9 1300.4C642.7 1274.4 630 1244 619.4 1212.9C616.5 1204.3 611.4 1191.3 608.1 1183.9L602 1170.5L602.6 1176.5C602.9 1179.8 606.1 1194 609.7 1208C613.3 1222 617.3 1238.2 618.5 1244C619.8 1249.8 623.6 1265.1 626.9 1278C632.5 1299.2 642.2 1338.2 654.5 1389C657 1399.2 659.6 1411.3 660.5 1416C661.3 1420.7 664.4 1436.6 667.5 1451.5C670.5 1466.3 673.4 1481 674 1484C674.5 1487 675.6 1493.3 676.5 1498C684.9 1543.5 686.4 1561.7 685 1605C683.8 1643.3 683.6 1644.2 672.8 1671.5C659.3 1705.5 645 1729.3 626.5 1748.9C618.4 1757.5 598.4 1775.4 589 1782.6C566.2 1800.1 508.8 1839.7 469.5 1865.2C463.5 1869.1 430 1888.8 397.5 1907.5C370 1923.4 360.4 1929 350.1 1935.3C334.9 1944.7 330.8 1946.1 318 1946.7C304.4 1947.4 291.9 1945.7 279.8 1941.6C268.9 1937.9 260.9 1933.5 254.1 1927.3C248.7 1922.5 249 1920.6 254.5 1925C267.9 1935.6 285.1 1941 305.6 1941C317.3 1941 330.3 1939.5 333 1937.9C334 1937.3 333.4 1937.2 331.5 1937.7C329.9 1938.1 324.2 1938.4 319 1938.3C310 1938.2 305.6 1937.3 291 1932.7C288.5 1931.9 282.6 1930.3 277.8 1929.2C248.7 1922.2 224.7 1903.1 212 1876.6C207.8 1867.8 204 1856.9 204 1853.6C204 1850.5 205.4 1852.7 208.9 1861.6C214.8 1876.6 228.9 1895.2 240.2 1903.1L243.5 1905.4L239.9 1901.4C232.2 1892.7 225.4 1880.8 222.5 1870.4C221.5 1867.2 219.9 1863.3 218.9 1861.8C217.8 1860.4 215.9 1856.9 214.6 1854C213.3 1851.2 211.2 1847.8 210.1 1846.6C208.9 1845.3 208 1843.9 208.2 1843.4C208.3 1842.9 206.4 1838.2 203.8 1833C198.7 1822.7 195.5 1812.4 193.9 1801.5C193.1 1795.5 192.1 1793.3 187 1785.5C183.7 1780.5 181 1775.9 181 1775.2C181 1772.9 182.5 1774 185.2 1778.3C186.7 1780.6 189.2 1784.1 190.9 1786L193.8 1789.5L192.9 1785C191.8 1778.8 191.8 1768.2 193 1767.5C193.6 1767.1 194 1768.4 194 1770.6C194 1773.2 195.9 1778 200.6 1786.9C207.8 1800.9 210.2 1804.3 207.1 1796.2C204.7 1790.1 201.6 1773.5 202.4 1771.3C203.5 1768.6 204.7 1770.9 205.3 1776.8C205.7 1780.1 207.2 1786 208.6 1790C211.3 1797.1 220.6 1812.7 221.6 1811.7C221.9 1811.4 221.4 1807.8 220.6 1803.6C219.7 1799.5 219 1794.9 219 1793.5C219 1792 217.1 1786.7 214.7 1781.7C208.9 1769.4 206.5 1763.1 207.5 1762.2C207.9 1761.8 208.5 1762.1 208.7 1762.7C209 1763.4 211.2 1768.1 213.7 1773.2C217.8 1781.4 218.4 1782.2 219 1780L219.6 1777.5L220.5 1780C222.9 1787.6 230.6 1801.7 236.9 1810C244.8 1820.5 263.9 1841.4 264.8 1840.5C265.1 1840.2 264.4 1839 263.3 1837.7C259.5 1833.6 251.2 1820 246.1 1809.6C241.2 1799.7 233.9 1779.4 232.5 1771.7C231.3 1765.7 233.4 1767.5 235.4 1774.2C238 1783 245.4 1801.2 249.7 1808.9C254.9 1818.4 265.8 1833.5 272.9 1841L279 1847.5L272.6 1837.7C265.2 1826.5 255.7 1807.7 256.2 1805.2C256.4 1804.2 258.7 1807.5 261.6 1813C273.8 1835.7 291 1856 301 1859.6C305.4 1861.1 326 1862.9 326 1861.7C326 1861.3 324 1858 321.6 1854.3C314.8 1843.7 312.7 1839 314.8 1839C315.2 1839 317.3 1841.8 319.4 1845.1C321.6 1848.5 325.6 1853.7 328.3 1856.6L333.2 1862L340.5 1862C345.7 1862 347.9 1861.6 348.3 1860.6C348.7 1859.6 349.9 1859.5 354.2 1860.2C359.3 1861.1 360.5 1860.8 375.6 1855.6C384.3 1852.6 394.1 1849.2 397.3 1848L403.1 1845.8L396.9 1839.8L390.8 1833.8L378.8 1834.5C364.6 1835.3 363.4 1833.9 376.7 1832C381.6 1831.3 385.9 1830.4 386.3 1830C386.8 1829.6 385 1828.9 382.4 1828.5C376.9 1827.7 364.8 1824.7 360.7 1823.1C356.6 1821.5 358.3 1820 362.8 1821.2C367.3 1822.5 382.4 1824.9 382.8 1824.5C383 1824.3 381.4 1821.6 379.2 1818.3C372.4 1808.4 367.6 1797.6 364 1784.9C362.6 1779.8 362.5 1778 363.4 1778C364 1778 365.2 1780.1 365.9 1782.7C367.9 1790.3 375.8 1805.5 382 1813.8C390.6 1825.3 390.2 1825.1 401 1824.8L410.4 1824.5L403.9 1820.6C400.4 1818.4 394.4 1815.1 390.7 1813.2C386.9 1811.3 384.1 1809.6 384.4 1809.3C384.7 1809 389.3 1809.7 394.7 1810.9C408.1 1813.9 408 1813.9 408 1813C408 1812.6 406.5 1809.1 404.6 1805.4C402.8 1801.6 400.5 1796.4 399.5 1793.8C398.1 1790.1 396.8 1788.5 393.4 1786.5C383.9 1780.9 368.3 1765.6 364 1757.5C361.7 1753.3 363.6 1753.6 367.7 1758.2C373.6 1765 381 1771.7 387.7 1776.5C397.1 1783.3 397.5 1782.4 389.4 1772.4C382.6 1763.9 374.8 1748.3 371.8 1737C370 1730.2 369.6 1725.9 369.6 1715C369.6 1700.6 370.6 1695.6 376.6 1681.3L379.1 1675.2L374 1665.3C371.1 1659.9 367.6 1653.4 366.2 1650.7C364.8 1648.1 364 1645.7 364.4 1645.3C364.8 1644.8 365.6 1645.2 366.1 1646C366.6 1646.8 372.4 1656.7 379 1667.9C385.6 1679.2 391 1687.5 391.1 1686.4C391.2 1685.4 391.1 1683.5 391.1 1682.3C391 1681.2 391.4 1679.9 391.9 1679.5C393.8 1678.4 393.1 1676.5 389 1670.4C386.8 1667.1 385 1664.2 385 1663.7C385 1661.8 387.2 1663.4 390.2 1667.6C392 1670.1 393.6 1671.7 393.8 1671.1C394.1 1670.1 388.6 1662 381.8 1653.8C374.9 1645.5 379.6 1647.7 387.2 1656.4C391.2 1661 394.7 1664.5 395 1664.1C395.3 1663.8 396.4 1663 397.4 1662.4C399.4 1661.3 399.5 1661.1 400.4 1648.7C400.7 1644.4 401.4 1640.1 402 1639.2C403.2 1637 403.2 1637.3 403.1 1651.5L402.9 1663.5L405.1 1661C406.3 1659.6 408.3 1657.1 409.7 1655.5L412.1 1652.5L411.6 1655.5C410.6 1660.6 408 1678.4 408 1680C408 1681 408.7 1680.7 410.1 1679L412.1 1676.5L411.4 1680.5C411 1682.7 410.7 1685 410.7 1685.6C410.7 1687.1 437.2 1729 438.2 1729C439.3 1729 439.2 1727.3 437.6 1721.2C434.8 1710.8 434.4 1691 436.9 1691C437.4 1691 438 1695.2 438.3 1700.3C439.5 1718.6 446.1 1733.2 455.6 1738.2C460 1740.6 461 1740.8 464.2 1739.8C466.7 1739.1 468.2 1737.8 469.3 1735.5L470.8 1732.3L467.2 1731.1C457.3 1727.7 455 1726.6 455.8 1725.8C456.3 1725.3 458.4 1725.6 460.6 1726.3C462.7 1727.1 466.2 1728 468.3 1728.4L472.1 1729.1L474.4 1723.8C478.9 1713.5 479.8 1714.4 465 1714.8C450.4 1715.3 447 1713.7 460.2 1712.6C464.7 1712.2 471.2 1711.2 474.6 1710.4L480.8 1708.8L485 1697.1L489.1 1685.3L488 1674.9C485.5 1651.6 481.3 1631.8 474.5 1611.5C468.8 1594.6 467.8 1593 450.3 1576.5C437.5 1564.3 431.8 1559.7 420.5 1552.5C412.8 1547.5 401.8 1540 396.1 1535.8C390.3 1531.5 385.5 1528.2 385.3 1528.4C385.1 1528.6 386.1 1532 387.6 1535.9C389.1 1539.8 390 1543.4 389.6 1543.7C388.7 1544.6 388.5 1544.3 383.3 1532.9C378.8 1523.1 377.9 1521.9 371 1516C353.3 1500.9 333.3 1479.4 321.4 1462.5C313.8 1451.9 302 1429.9 302 1426.6C302 1426 304.1 1428 306.7 1431C309.3 1434 316.6 1441.7 322.9 1448C334 1459.1 333.8 1458.6 321.5 1445C318.3 1441.5 311.5 1433.3 306.3 1426.8C301.1 1420.4 293.2 1411.6 288.8 1407.3C282 1400.7 267.8 1384.7 265.2 1380.6C264.8 1380 261.4 1376.8 257.6 1373.5C248.4 1365.5 238.3 1353.8 229.8 1341.1C218.2 1323.7 209.7 1304.9 203.6 1282.6C201.7 1276 198.2 1266.2 195.7 1261C185.4 1238.9 176.7 1208.3 174.5 1186C174.1 1182.4 172.5 1175.2 171 1170C169.4 1164.8 167.5 1158 166.7 1155C165.5 1150.1 153 1129 153 1131.8C153 1132.3 153.9 1138.2 155.1 1145C156.9 1155.9 157 1159.4 155.5 1157.8C155.2 1157.5 152.3 1147 149.1 1134.4C145.8 1121.8 141.3 1106.7 139.1 1100.8C136.8 1094.9 133.9 1085.4 132.5 1079.8C130.5 1071 129.3 1068.2 124.5 1061C96.8 1019.2 78.1 975.1 67.4 926.5C66 920 65.5 919 64.9 921C64.5 922.6 64.2 920.1 64.1 914.5C64 909.5 63.3 899.6 62.5 892.5C60.8 877.5 60.5 851 62 851C62.6 851 63 853.6 63.1 856.7L63.2 862.5L65.1 855C71.3 831.3 80.1 803.5 84.5 793.5C93.6 773.1 96.8 766.4 102.1 756.8C105.5 750.6 111 741.2 114.3 736C120.2 726.7 141.3 698 146.9 691.7C148.5 689.9 153.5 684.2 158 679C165.3 670.6 170.3 665.1 181.4 653.2L184.5 649.8L177.5 653.6C149.4 668.7 116.2 699.6 98.1 727.5C95.7 731.3 93.5 733.9 93.2 733.2C93 732.5 94 729 95.3 725.2C96.7 721.5 98.6 716 99.5 713C110.3 678.3 128 641.9 147.5 614.3L154.1 605.1L150.4 606.6C144.8 609 134.2 616.2 127.3 622.4C98.7 648.3 82.1 696.2 88.1 735.1C89.1 741.9 89.1 742.1 86 747.7C77 764.3 68.5 789 65.1 808.9C63.5 818 63.2 818.8 63.1 814.4C62.9 801.9 69.3 747.6 75.4 710C77.3 698.7 79.1 687 79.5 684C79.8 681 81.5 671.8 83.1 663.6C84.7 655.4 85.9 647.9 85.7 647.1C85.2 644.9 80.6 665.9 78 681.7C76.6 690.5 74.6 691.7 75.5 683.2C80.5 638.9 93.9 592.9 116.3 543C119.9 535 123.8 525.3 125 521.5C132.9 495.5 141.8 476.4 155.7 455.7C160.9 447.9 165.5 439.8 166.3 436.9C167.1 434.2 167.6 432 167.4 432C166.8 432 147.7 461.3 137.8 477.5C120.9 505.1 101.4 539.7 92.9 557.2C89.9 563.4 88 565.6 88 563C88 561.7 101.6 533 109.8 517C130.8 476.1 143.8 453.4 169.5 412.5C182.3 392.2 182.9 391.1 186.3 378.9C200.1 330.1 229.9 277.1 269.2 231.5C282.3 216.3 310.2 189.3 324 178.5C330.3 173.5 341.6 163.4 349 155.9C364 140.9 374.2 132.7 387.7 125C394.9 120.9 398.9 117.6 407.1 109.1C412.8 103.2 419.4 95.7 421.7 92.4C440.2 66.1 469.5 45.1 503.2 33.9C510 31.6 516.6 29 518 28C519.4 27 523.4 24.8 526.9 23C530.5 21.2 536.1 17.3 539.4 14.4C542.8 11.4 548.4 7 552 4.5L558.5 0.1ZM917.2 30.8C898.2 40.9 886.9 49.5 877.2 61.2C866 74.7 865.2 75.5 864.4 74.7C863.9 74.3 864 73.6 864.5 73.2C865.9 72.2 871.2 64 870.4 64C868.8 64 859 71.7 851.2 79.2C848.9 81.4 846.7 83 846.4 82.7C845.4 81.7 852.6 73.2 860.6 66C870.2 57.2 892.6 41.3 902.5 36.2C907.8 33.4 906.7 33.5 895.9 36.5C884.9 39.6 879.4 41.8 868 47.4C858.9 52 856.9 53.2 847 60.5C807.2 89.7 783.7 136.6 786.4 181.4C788.1 210.6 799.2 236.4 818.9 257L826 264.5L821.4 255.7C818.8 250.9 817 246.7 817.2 246.5C817.5 246.2 820.2 248.9 823.4 252.5C829.4 259.3 833.5 262.5 832.3 259.4C832 258.4 833.5 259.2 836.3 261.3C840.6 264.6 854.5 271 857.2 271C857.9 271 857.2 270 855.5 268.8C850.6 265.2 838.6 252.9 835.3 248C824 231.3 819.1 214.9 818.4 192L818 178.5L820.1 187.9C823.2 202.4 831.7 222 836.5 226C838 227.2 838.1 227 837.5 223.9C834.9 209.7 832.9 173.2 834.8 174.4C835.3 174.7 836.1 177.5 836.5 180.7C838.6 197.8 847.1 218.3 856.9 230L859.8 233.5L857.9 226C849.4 192.7 850.5 156.9 861.1 120.8L864.3 110.1L868.8 108.5C871.3 107.7 873.6 107 873.8 107C874.1 107 874 109.6 873.6 112.7C872.5 122.2 873 138 874.6 146C875.5 150.1 876.3 153.7 876.5 153.8C876.7 154 878.3 149.5 880 143.8C881.8 138.2 883.6 133.3 884.1 133.2C884.6 133 885 131.3 885 129.5C885 125.6 889.3 113.8 892.2 109.8C894.8 106.1 895.7 106.8 893.6 110.9C892.1 113.8 892.4 113.6 899.7 108.4C923.1 91.6 933.6 87.8 971 82.6C1003.6 78 1005.4 78.1 991 83.4C980.3 87.5 962.8 96.4 953.5 102.6C944.3 108.8 933.7 117 934.2 117.6C934.4 117.8 938 116.6 942.1 114.9C967.9 104.4 998.3 95.5 1025.4 90.5C1041.5 87.6 1040.3 87.7 1039.5 88.9C1039.2 89.4 1036.4 90.6 1033.2 91.5C1024 94.2 1004.8 101.6 997.4 105.3C985.6 111.2 983.9 112.2 984.2 112.5C984.4 112.7 991.5 111.8 1000 110.5C1028.9 105.9 1056.9 102.5 1055.8 103.6C1055.4 103.9 1049.4 105.2 1042.3 106.5C1035.3 107.8 1025 109.9 1019.5 111.2L1009.5 113.5L1014 114.2C1016.5 114.6 1042.6 115.4 1072 116C1128.4 117.1 1156.1 118.7 1175 122C1196.7 125.8 1218.5 132.8 1240.7 143L1251.5 148L1244.2 141C1231.7 129.1 1214.1 118.3 1195 110.9C1189.8 108.9 1185.4 106.8 1185.3 106.3C1185 105.4 1196.9 107.2 1207 109.5C1212.4 110.7 1195 101.1 1182.5 96C1171.3 91.3 1163.5 87.3 1164.9 86.9C1165.7 86.6 1171.9 87.5 1178.8 88.7C1185.7 90 1191.5 90.8 1191.8 90.5C1192.6 89.7 1170.4 79.6 1161.5 76.7C1150.9 73.2 1139.2 70.4 1130.1 68.9C1125.9 68.3 1118.5 66 1112.6 63.5C1084.6 51.6 1056.3 47.3 1018 49.1C984.6 50.7 969.9 53.2 949.4 61C943.5 63.2 938.4 65 938.1 65C936.7 64.9 942.2 61.5 950.2 57.4C971.9 46.5 996.8 38.6 1033.8 31.1L1047.5 28.3L1042 27.1C1024.3 23.3 1016.8 22.7 1002.5 23.8C985.3 25.3 970.6 28.5 957.5 33.9C940.9 40.7 928.7 48.4 917.8 58.9C915.1 61.4 913 62.9 913 62.3C913 60.8 922 47.5 931.3 35.1C936.4 28.4 939.6 25.2 942.5 23.8C946.4 21.9 946.4 21.9 943.3 22.4C941.5 22.7 938.6 23.3 936.8 23.7C934.6 24.1 933.9 24 934.4 23.2C935.7 21 933.6 22 917.2 30.8ZM697.3 80.4C694.8 81.5 694.1 82.5 693.8 85.2C693.6 87.5 692.9 88.6 691.5 88.9C690.4 89.1 688.3 90.1 686.7 91.2C684.6 92.7 684 93.9 684.2 96.2C684.4 98.1 683.9 99.5 682.7 100.1C681.8 100.7 681 102 681 103C681 104.6 680.3 105 678 105C674.3 105 669 107.1 667.2 109.3C666 110.7 666.2 111.6 668.5 115.8C671.6 121.5 675.3 124 680.7 124C687.5 124 688.9 123.2 689.2 119.2C689.5 116 690.1 115.3 694.5 113.1C699.3 110.6 699.5 110.3 699.3 106.7C699.2 104.7 699.5 103 700 103C700.6 103 701 101.7 701 100.1C701 97.6 701.4 97.2 704.9 96.6C707 96.3 709.3 95.3 710 94.5C711.7 92.5 710.8 83.6 708.7 81.5C706.4 79.2 701.1 78.7 697.3 80.4ZM1132.5 121.6C1113.6 122.9 1047 133.3 1047 135C1047 136.2 1064.6 139 1077.6 140C1084.7 140.5 1106 140.6 1125 140.3C1177.7 139.4 1198.3 142 1225.4 153.4C1231.5 155.9 1236.5 157.8 1236.7 157.6C1237.5 156.9 1222.6 143.8 1215.9 139.3C1203.5 131.1 1190.8 126.5 1172.6 123.5C1163.2 122 1142.4 121 1132.5 121.6ZM653.5 122C650.2 122.1 642.5 125.9 641.1 128.2C639.9 130.2 640 130.6 642.6 132.6L645.4 134.9L642.4 135.5C640.8 135.9 638.7 136.4 637.7 136.7C635.1 137.4 629 142.9 629 144.6C629 145.4 631.5 147.6 634.5 149.7C641 153.9 647.7 155 656 153C662 151.6 662.8 150.4 660.5 146.1C658.6 142.4 659 142.2 667 141.8C672.2 141.5 672.5 141.3 672.8 138.8C673.5 132.9 666.7 125.2 658.9 123C657 122.4 654.6 122 653.5 122ZM1125.5 143.4C1115.5 144.8 1103.8 147.9 1097 150.8L1092.5 152.7L1095.5 153.4C1097.2 153.7 1106.1 154.9 1115.5 156.1C1124.8 157.2 1132.6 158.3 1132.8 158.4C1132.9 158.6 1131 159.5 1128.5 160.4C1126 161.4 1124.2 162.5 1124.5 162.9C1124.7 163.4 1128.5 164.7 1133 166C1140.6 168.2 1143.4 170 1139 170C1137.9 170 1137 170.4 1137 171C1137 171.5 1137.7 172 1138.5 172C1139.3 172 1140.8 172.4 1141.8 172.9C1145.9 175.1 1161.2 182.8 1168.5 186.3C1180.6 192.2 1183 195 1176 195C1173.8 195 1172 195.4 1172 195.8C1172 196.2 1175.2 198.4 1179.2 200.5C1191 207 1195.1 209.3 1203.4 213.9C1209.8 217.5 1221.1 225.4 1229 231.7C1229.8 232.4 1234 235.7 1238.4 239.1C1243.4 243 1245.8 245.5 1245.1 246C1244.3 246.4 1246 248.7 1250.1 252.4C1253.5 255.5 1256 258.3 1255.8 258.6C1255.5 258.8 1253.8 258.4 1251.9 257.6C1248.1 256.1 1241 254.6 1241 255.4C1241 256.8 1251.3 268.5 1259.9 277C1276.9 293.8 1298.9 310.4 1314.7 318.4L1320 321L1318.3 316.8C1316.2 311.3 1307.6 297.3 1304.2 293.8C1301 290.3 1301.7 289.5 1306.3 291.5C1308.4 292.3 1310 292.9 1310 292.7C1310 290.6 1305.4 280 1302.7 275.8C1298.5 269.4 1289.5 260.2 1283.2 256C1280.8 254.4 1277.6 251.3 1276.2 249.3C1269.4 239.1 1258.9 228.2 1247.8 219.7C1243.1 216.1 1241.5 214.4 1242.5 214C1246 212.8 1229 195.1 1215.1 185.7C1212 183.6 1209.3 181.6 1209 181.3C1208 180.2 1217.2 182.1 1220.1 183.5C1222.6 184.9 1222.9 184.9 1222.4 183.5C1221.9 182.4 1222.5 182 1224.4 182C1228 182 1226.9 180.2 1220.5 175.5C1214.9 171.5 1213.4 169.4 1216.9 170.5C1217.9 170.8 1222.3 171.7 1226.5 172.4L1234.3 173.8L1231.4 171.1C1217.8 158.8 1196.5 148.9 1173.9 144.5C1162.6 142.3 1137 141.7 1125.5 143.4ZM1342.8 152.4C1337.9 149.9 1339.9 152.3 1348.3 159.2C1377.4 182.9 1420.1 225 1443.1 252.6C1447.1 257.5 1451 262.1 1451.7 262.8C1452.4 263.6 1454.2 265.8 1455.7 267.8C1457.2 269.9 1460.5 274 1463.1 277C1467.7 282.5 1481 299.9 1502.7 328.8C1509 337.3 1514 344.4 1513.7 344.6C1513.4 344.9 1511.3 344.2 1509 343C1506.7 341.8 1504.9 341.3 1505.1 341.8C1505.3 342.4 1510.3 347.9 1516.1 354.2C1529.4 368.4 1536 375.9 1541.8 383.5C1544.4 386.8 1547.3 390.4 1548.3 391.5C1549.3 392.6 1550.6 394.4 1551.2 395.5C1552.2 397.3 1552.2 397.4 1550.3 396C1533.3 383.7 1517 373.7 1517 375.5C1517 375.9 1518.7 378.3 1520.8 380.9C1530.8 392.9 1550.1 418.4 1551.9 421.9C1553.5 424.9 1552.6 424.3 1545.4 417.7C1542.1 414.7 1535.7 408.9 1531.1 404.6C1526.5 400.4 1522.5 397.2 1522.2 397.5C1521.9 397.7 1522.3 398.6 1523 399.5C1524.7 401.6 1523.7 401.4 1518 398.5L1513.1 396L1524.1 410.5C1530.1 418.5 1536 426.7 1537.2 428.7L1539.3 432.5L1534.9 428.4C1526.1 420.3 1509.3 407.4 1508.5 408.2C1508.3 408.4 1510.3 411.7 1512.8 415.6C1537.9 453.5 1552.4 475.6 1556.2 481.5C1564.9 495.1 1580.6 522.1 1590.6 541C1594.3 547.9 1599.7 558 1602.7 563.5L1608 573.5L1607.5 566.5C1606.8 557.4 1605.4 549.2 1602.9 540.1C1601.8 536.1 1601.2 532.5 1601.5 532.2C1601.8 531.9 1602.1 531.9 1602.3 532.1C1602.5 532.3 1604.7 535.8 1607.4 539.8C1610 543.8 1612.4 547 1612.5 546.8C1613.1 546.3 1609.4 529 1607 521C1604.1 511.1 1599 496.7 1597.9 495.5C1596.8 494.3 1596.7 493 1597.9 493C1598.3 493 1601.7 498.6 1605.4 505.5C1609.1 512.4 1612.4 518 1612.7 518C1613 518 1613 515.3 1612.8 512.1C1612.4 505.2 1613.2 503.7 1615 507.9C1615.7 509.6 1618 514.2 1620.2 518.2C1624 525.4 1624.1 525.4 1623.5 521.2C1622.8 517.1 1624.3 515 1625.3 518.7C1626.4 522.8 1625.9 511.5 1624.5 499.5C1621.3 471.8 1615.5 447 1606.6 421.8C1600.8 405.7 1589.9 380.3 1585 371.5C1583.5 368.7 1581.1 364.5 1579.8 362C1571.4 346.9 1556 323.1 1553.1 321C1552.8 320.7 1551.7 319.3 1550.7 317.8C1547.1 312.2 1533.2 296.1 1522.5 285.4C1513.6 276.4 1501 265.3 1491 257.7C1483.2 251.7 1466.7 242 1464.4 242C1463.2 242 1462 241.6 1461.8 241.2C1461.7 240.7 1459.4 238.9 1456.8 237.2C1454.2 235.4 1447.5 229.2 1441.8 223.4C1414.8 195.6 1380.1 169.8 1352.5 157C1348.7 155.2 1344.3 153.1 1342.8 152.4ZM631.1 157.1C624.3 157.1 617.6 159 615 161.5C613.8 162.8 614 163.5 617.3 166.8L621 170.5L615.9 171.7C610 173.1 602.6 176.6 600.4 179.1C599 180.7 599.1 181 602.4 182.5C606.5 184.5 606.9 185.6 603.9 186.5L601.8 187.2L603.9 188.7C606.9 190.8 606.5 191.5 601.5 193.5C599 194.4 595.6 196.3 593.9 197.7C591.1 200.1 591.1 200.3 592.7 201.5C594.3 202.7 594.2 202.9 591.5 203.5C587.6 204.4 577.8 208.2 578.3 208.6C579.3 209.6 592.8 215.8 595.4 216.4C599 217.3 598.5 217.7 591.9 219.4C585 221.3 577 224.8 577 226.1C577 226.6 578.1 227.5 579.5 228C580.9 228.5 582 229.1 582 229.4C582 229.6 579.6 230.9 576.8 232.4C573.9 233.8 569.5 236.7 567 238.9L562.5 242.9L571.8 243C581.1 243 583.9 244.2 577.5 245.4C571.1 246.6 554 255.1 554 257.1C554 257.5 555.8 258.1 558 258.5C561.8 259.1 563.7 261 560.5 261C555 261 519 275.3 520.6 276.9C520.9 277.2 528 277.7 536.3 278L551.5 278.5L546.3 280.2C538.3 282.9 528.1 287.9 521 292.5C513.4 297.4 503.5 306.4 506.5 305.6C524.5 301.1 530.7 299.7 542.8 297.5C550.6 296 557.6 295 558.2 295.2C558.8 295.4 557.6 296.4 555.4 297.4C546.1 301.8 532.6 310.5 527.3 315.6C524.1 318.6 522.4 320.7 523.5 320.2C526.3 318.9 554.4 312 557 312C558.7 312 557.7 313.4 552.2 318.9C545.7 325.3 540.9 331.4 538.2 336.7L537 338.9L543 336.4C546.3 335.1 551.8 332.6 555.2 331C558.6 329.4 561.5 328.2 561.8 328.4C562 328.7 560.4 331.2 558.2 334.2C553.4 340.6 547.8 350 548.8 350C549.2 350 551.4 348.9 553.8 347.5L558.1 345L557.4 347.3C557 348.5 556.5 350.2 556.2 351C555.5 352.8 555.6 352.7 565.8 344.6C569.8 341.4 573.3 338.9 573.5 339.2C573.7 339.4 572.3 341.8 570.3 344.6C566.3 350.2 561.6 359.8 560.5 364.9L559.8 368.3L563.6 365.4C565.8 363.9 568.7 361.5 570.1 360.2C573.1 357.5 574.9 358.7 572.2 361.6C569.3 364.8 561.4 376.2 558.2 382C554.5 388.5 549 401.6 549 403.8C549 404.6 553.2 401.3 558.3 396.3C573.2 381.8 580.6 375 581.4 375C582.1 375 580.1 379.2 579 380C576.1 382 565 407.5 565 412C565 412.5 572.5 405.4 581.7 396.3C590.9 387.2 598.6 380.2 598.8 380.8C598.9 381.3 597.8 384.2 596.2 387.1C594.6 390.1 591 396.8 588.2 402C583.3 411.2 577.5 424.9 578.3 425.6C578.5 425.8 583.1 421.5 588.5 416C594 410.6 598.6 406.3 598.9 406.5C599.1 406.8 598.2 408.7 596.8 410.7C594 414.9 588 427.6 588 429.2C588 429.8 588.7 429.7 589.6 428.9C591.1 427.7 591.2 427.9 590.6 430.8C590.2 432.5 590 434 590.3 434C590.5 434 593.9 430 597.8 425.2C604.9 416.4 609 412.1 609 413.4C609 413.7 607.5 417.1 605.6 420.8C601.9 428.2 597.5 439.8 598.1 440.5C598.4 440.7 602.3 437.3 606.8 432.8C611.4 428.4 615.4 425 615.6 425.3C615.9 425.6 615.4 427.2 614.6 428.9C612 433.8 612.7 433.7 618.2 428.5C623.9 423.1 623.7 423.4 616.3 433C613.5 436.6 608.7 443.4 605.7 448.1C599.5 457.8 590.3 475.4 591.8 474.9C592.9 474.5 605.7 463.1 615.4 454C619.5 450.1 619.5 450.1 615.2 460.2C612.7 465.8 610.7 472.7 611.9 471.4C612.4 470.9 614.1 468.6 615.8 466.2C617.5 463.9 619 462.5 619.2 463.1C619.5 463.9 620.4 463.6 622.1 462.3C634.4 452 640.5 446.5 646.5 440.8C650.3 437 653.6 434 653.8 434C654 434 653.4 435.3 652.3 437C644.6 449.5 638.7 459.6 635.7 465.6C633.7 469.5 630.5 475.3 628.6 478.6C624.6 485.2 624.3 486.2 626.7 485.3C628 484.8 628.2 485 627.6 486.6C626.4 489.4 624 498.3 624 499.9C624 501 639.7 481.3 646.9 471.2C650.5 466.1 650.6 468.1 647.2 476.3C644.2 483.4 639.9 498.3 638.6 506.5L637.9 510.5L640.6 506.2C642 503.8 643.4 502 643.6 502.3C643.8 502.5 642.6 506.4 641 510.9C639.2 515.7 637.7 522.1 637.5 525.9C637.2 529.5 636.3 535.9 635.4 540C634.6 544.1 633.7 548.6 633.4 550C633.1 551.4 635.8 547.5 639.3 541.5C655.8 512.9 673 487.9 691.4 466C703.3 451.8 706 448.9 724 431C746.4 408.6 751.9 403.6 774.8 385.3C782.6 378.9 789 373.6 789 373.4C789 372.2 765.1 382.3 755.1 387.8C750.5 390.3 746.9 391.9 747.3 391.4C747.6 390.8 752.2 385.8 757.5 380.2C767.1 370.2 770.4 367.8 791 356.1C797.7 352.3 796.1 352.2 781.5 355.5C769.6 358.2 763.6 360.2 752 365C747.9 366.7 743.8 368.4 743 368.7C742.2 369 743.3 367.4 745.5 365.1L749.4 361L743 363.5C739.5 364.9 736.4 365.8 736.2 365.5C735.4 364.7 736 364.4 748.6 357.5L760.5 351L753.5 351.1C749.7 351.1 744.6 351.5 742.3 351.9C739.9 352.4 738 352.4 738 351.9C738 351.5 736.4 351.6 734.4 352.1C729.8 353.4 725.4 352.9 725.8 351.1C726 350.1 725.5 349.9 723.8 350.4C722.5 350.8 717.2 351.7 712 352.5C706.8 353.3 700.1 354.6 697.2 355.5C694.2 356.4 691.6 356.9 691.4 356.7C691.2 356.5 694.5 354.2 698.7 351.7C708 346.2 711.2 343.9 709 344.1C708.2 344.2 706.7 344.2 705.6 344.1C704 344 704 343.8 706.1 342C708.9 339.8 707.5 339.4 702.1 341C698.4 342 696.6 341.5 698.9 340C700.7 339 690.8 337.6 685 338.2C682.7 338.4 681 338.1 681 337.5C681 336.9 683.9 334.7 687.5 332.5C691.1 330.3 696.4 327 699.3 325.3L704.5 322.1L700 322C697.5 322 691.2 322.9 686 324C680.8 325.1 676.1 326 675.5 326C674.1 325.9 680.2 321 681.6 321C682.2 321 683.3 320.3 684.1 319.4C685.2 318 684.7 317.9 678.9 318.5C675.4 318.9 671.9 319.3 671.3 319.5C669.8 320 663 317.3 663 316.2C663 315.8 666.3 313.6 670.3 311.2L677.5 306.9L669.2 307.4C662 308 660.3 307.7 655.2 305.6C652.1 304.3 647.8 302.9 645.7 302.5C643.7 302.1 642 301.5 642 301.1C642 300.7 646.4 298.1 651.8 295.4C660 291.3 661.1 290.5 658.8 290.2C657.2 290 656 289.5 656 289.1C656 288.3 669.5 286 673.8 286C677.5 286 676.3 284.5 671.3 282.7C663.1 279.9 657 278.9 642 277.9C634 277.4 626.9 276.9 626.3 276.8C624.2 276.6 624.8 275 627.4 273.9C628.8 273.2 629.6 272.2 629.4 271.5C629 270.7 632.5 269.6 641 268C647.7 266.8 653 265.7 652.8 265.5C651.9 264.6 633.9 259.1 630 258.5C627.5 258.1 625.1 257.5 624.6 257.2C624.1 257 627.2 255.6 631.5 254.3C637.2 252.5 639 251.5 638.6 250.4C638 248.8 640.2 248.6 646.8 249.9C649.3 250.4 651 250.4 651 249.8C651 249.3 649.4 246.8 647.4 244.4C645.4 242 644.2 239.9 644.6 239.9C645.1 239.8 646 239.7 646.5 239.5C647.1 239.4 648.1 239.2 648.8 239.2C650.9 238.9 646.6 233.6 641.5 229.9C636.3 226.2 635.8 224.8 639.8 225C641.3 225.1 645.4 225.2 648.9 225.1L655.4 225L651.9 221.4C650.1 219.4 646.3 216.3 643.5 214.4C640.8 212.5 639 210.9 639.5 210.8C640.1 210.8 641 210.6 641.5 210.5C642.1 210.3 643.8 210.2 645.4 210.1C647.7 210 648.1 209.7 647.5 208.2C645.4 203.2 645.3 203.2 653.8 202.9C658.2 202.7 662.2 202.2 662.5 201.8C663.4 200.9 658.8 195.3 654.7 192.3C651.7 190.1 651.8 189.9 656 188.7C657 188.5 655.6 186.5 651.4 182.2L645.2 176.1L650.1 174.5C652.8 173.6 655 172.5 655 172C655 169.6 647.9 162.3 643.1 159.8C638.8 157.5 636.5 157 631.1 157.1ZM296.8 219C254.7 259.6 223.7 302.6 203 349.4C199.6 357 197 363.4 197.2 363.5C197.4 363.7 199.5 360.6 201.9 356.7C208.8 345.6 222.2 327.9 230.1 319.5C237.4 311.9 243.2 301.4 241 300C239.1 298.8 258.7 268.6 275.4 247C279.9 241.2 289.9 230 297.7 222C305.6 214 312.7 206.5 313.5 205.2C317.2 200 312.4 204 296.8 219ZM1062 315.7C1049.9 317.4 1038.1 318.2 1040.5 317.1C1041.8 316.6 1039.8 316.4 1035 316.7C1023.7 317.4 1023.6 317.3 1037.5 321.2C1039.7 321.8 1041.9 322.7 1042.3 323C1043.4 323.9 1012 325.1 991.5 325C972.7 324.9 966.1 326 947.5 332.4C940.4 334.8 934.3 336.6 934.1 336.4C933.9 336.2 934.5 335 935.6 333.9C937.5 331.8 937.5 331.7 935.5 332.3C934.4 332.6 926.8 334 918.5 335.4C901.8 338.3 893.9 340.3 902.5 339.5C916.2 338.3 929 337.9 929 338.7C929 339.1 922.8 340.8 915.2 342.4C894.8 346.7 866.3 353.8 863.2 355.4C861.7 356.1 854.4 358.9 847 361.5C832.9 366.5 831.1 367.3 816.5 375.6C804.4 382.4 800.3 385 801.4 385C801.8 385 806 383.8 810.7 382.4C815.3 381 819.4 380.1 819.7 380.4C820.7 381.4 814.5 386 807.5 389.5C803.7 391.4 796.9 394 792.5 395.2C784.6 397.5 778.2 401.9 778.8 404.6C778.9 405.3 777.8 406.1 776.3 406.5C773.6 407.1 756.1 418 737.5 430.4C727.7 437 709 454.3 712.8 453.3C714 453 715 453.1 715 453.6C715 454 711.8 457.6 707.9 461.7C702.4 467.3 701 469.3 701.9 470.3C702.7 471.3 701.3 475.7 696.4 487.6C692.8 496.3 687.4 509.8 684.3 517.5C681.2 525.2 678.1 532 677.4 532.6C676.6 533.2 676 534 676 534.3C676 534.6 674.2 538.8 672 543.5C669.8 548.2 668 552.3 668 552.5C668 552.7 666.6 555.2 664.9 558.1C662.4 562.4 647.9 599 648.4 599.7C648.5 599.8 651.7 597 655.6 593.4C667.8 581.9 668.9 582.6 660.4 596.4C654.5 605.8 644.8 619.2 640 624.5C638.5 626.1 636.9 628.6 636.5 629.8C635.9 631.9 636.1 632.1 638 631.5C640.1 630.8 640.1 630.9 637.7 635.7C636.3 638.4 633.1 643.6 630.6 647.4C628 651.3 624.5 658.6 622.4 664.4C617.7 677.7 617.9 677.2 618.7 676.8C619.2 676.6 621.6 675.4 624.2 674C626.8 672.7 629.2 671.9 629.6 672.2C630.2 672.9 624.4 681.9 617 691.6C612.6 697.3 612.3 698.3 611 707.1C610.3 712.3 607.8 723.2 605.4 731.3C603 739.5 601 746.4 601 746.6C601 746.8 603.4 745.2 606.3 743C609.1 740.8 611.6 739.4 611.8 740C612 740.5 610.3 743.3 608.2 746.2C597.7 760.1 595.4 765.5 585.4 799.4C571.9 845.1 559.2 891.9 557.3 903C555.2 914.8 555 951.9 556.8 966C558.6 979.4 562.7 1001.7 565.6 1013.8C568 1024.3 568.7 1031.6 567.1 1030.6C566.7 1030.3 566 1028.1 565.6 1025.8C564.9 1021.6 560 1013 553.1 1004C551.2 1001.5 550 1000.4 550.4 1001.5C550.9 1002.6 552.5 1007.5 554 1012.5C555.5 1017.4 558.4 1026.2 560.4 1031.9C562.4 1037.6 563.9 1042.5 563.6 1042.7C562.6 1043.7 552.9 1030.1 548.2 1021.2C542.3 1009.8 538.8 1000.9 535.4 988.5C533.2 980.2 533 979.9 533.5 985C533.8 988 534.7 995.4 535.5 1001.5C536.3 1007.5 537 1013.6 537 1015C536.9 1017.5 536.9 1017.5 535.4 1015.5C531.6 1010.7 525.7 997.1 523.5 988.2C521.2 979.2 521.1 978.9 521.6 984.5C521.9 987.8 522.4 996.3 522.6 1003.5C522.9 1010.6 523.6 1021.9 524.3 1028.5L525.6 1040.5L528.4 1029C530 1022.7 531.7 1017.1 532.1 1016.6C534.5 1014 531.6 1040.6 527.4 1060.9C524.7 1073.6 524.6 1080.6 527 1085.1C527.7 1086.3 530.2 1089.8 532.6 1092.7C537.6 1098.8 540.8 1104.8 545 1115.8C548.3 1124.2 548.7 1126.5 546.5 1123.5C545.1 1121.8 543.6 1121.6 531.7 1121.5C517.9 1121.3 511.6 1120.2 498.9 1115.4C489.4 1111.9 469.5 1099.2 471 1097.7C471.3 1097.4 473.9 1098.7 476.7 1100.6C487.6 1107.9 507.1 1114 519.7 1114C523.9 1114 525.2 1113.6 526.4 1111.8C529.3 1107.7 528.4 1101.7 523.3 1091.7C519.1 1083.4 518.7 1081.8 518.7 1075.5C518.6 1071.5 519.6 1065 520.8 1060.5L522.9 1052.4L520.1 1043.5C518.6 1038.5 516.5 1030.5 515.5 1025.7C514 1018.5 513.1 1016.2 510.3 1013.2C508.5 1011.2 507 1009.3 507 1008.9C507 1008.6 505.5 1006.7 503.7 1004.8C497.2 997.9 491 981.6 489.8 968.5C489.6 966.7 488.9 969.1 488.1 974.2C487.3 979.1 486.3 983 485.9 983C484.6 983 481 970.3 481 966C481 962.5 480.7 962.1 477.9 961.5C475.8 961 474.3 961.3 473.1 962.4C470.2 965.1 463 967 456.1 967C447.9 967 439.3 964.2 432 958.9C427 955.4 426.8 955 429.2 955C430.7 955 434.1 955.4 436.7 956C449.7 958.6 458.7 957.8 466.3 953.4L470.5 951L465.5 951C440.3 950.6 426.6 945.9 421.3 935.6C420.4 933.9 416 928.6 411.4 923.7C398.7 910.4 391.6 896.1 387.6 875.7L385.5 865L379.5 869.7C371 876.6 368.5 882 368.5 893C368.6 903.7 369.7 907.1 390.8 963.5C397.3 981.1 403.8 999.1 405 1003.5C406.3 1007.9 407.6 1011.9 408 1012.3C408.4 1012.7 409 1009.4 409.3 1004.8C410.4 991.1 417.8 964 423.5 952.9C426 948.1 426.3 950.2 424 956.6C418.2 973 415.1 990.2 414.3 1010C413.3 1035.2 416.4 1052.1 424.9 1069.6C434.9 1089.9 455.1 1112.2 475.5 1125.5C482.1 1129.8 489.1 1134.6 491.1 1136.1C498.1 1141.6 499.7 1148.1 501 1175C501.5 1185.2 502.4 1196.5 503 1200.2L504.2 1206.9L512.1 1213.1C516.4 1216.5 521.3 1221.4 523 1224C528.3 1232.3 534.3 1232.9 549.4 1226.6C563.5 1220.7 585.5 1206.9 590.8 1200.5C595.1 1195.2 597.1 1188.1 598 1174.5C598.4 1167.9 598.6 1162.1 598.4 1161.5C598.3 1161 597.9 1157.6 597.5 1154C597 1147.8 595.5 1134.4 594.5 1127.1C593.7 1120.5 595.8 1125.8 604.5 1151.5C633.3 1236.7 665.9 1303.5 698.5 1344.3C706.5 1354.2 755 1403.9 772.5 1420.1C780.4 1427.4 805.4 1449.6 810.1 1453.5C830.5 1470.4 837.9 1476.4 851 1486.6C881 1509.9 923.1 1538.8 951.2 1555.6C996 1582.3 1044.7 1601.8 1085.5 1609.5C1115.5 1615 1149.1 1615.9 1174 1611.6C1206.9 1606 1231.5 1595.9 1264 1574.6C1305.2 1547.5 1347.8 1504 1371.5 1464.8C1372.1 1463.9 1376.6 1457.5 1381.5 1450.5C1433.3 1378.1 1470.8 1289.9 1509.1 1150.5C1544.6 1021.4 1553.8 963.2 1546.5 914C1543.4 893.4 1539.3 879.2 1519.5 821C1509.2 790.4 1501.9 765.2 1490.4 720L1484 694.5L1478.7 689.5C1475.8 686.7 1471.4 682.9 1469 681L1464.5 677.5L1466.9 681C1468.2 682.9 1471.1 686.4 1473.4 688.7C1475.6 691.1 1477 693 1476.6 693C1475.5 693 1464.9 685.4 1458 679.7C1453.5 676 1452.4 675.4 1451.7 676.6C1451.2 677.5 1451.3 679.4 1452 681.1C1454.1 686.1 1452.5 685.3 1448.6 679.5C1446.6 676.5 1443.6 672.8 1441.8 671.2C1440.1 669.7 1437.5 667.3 1436.1 665.8C1434.7 664.4 1431.7 662.4 1429.5 661.6L1425.5 660L1428 662C1431 664.3 1430.4 664.4 1422.5 662.6C1419.2 661.8 1413.8 660.9 1410.5 660.6C1407.2 660.2 1402.3 659.7 1399.5 659.4L1394.5 658.8L1397.3 661C1400.9 663.8 1399.3 665.2 1393.5 664.4C1390 664 1390.3 664.3 1396.3 666.6C1400 668 1403 669.6 1403 670.1C1403 670.6 1401.8 670.5 1400.4 669.9C1390.9 666.3 1366 661.7 1363.8 663.2C1363.1 663.6 1360.1 664 1357.3 664C1352.4 664 1350.4 665.2 1353.3 666.3C1353.9 666.6 1353.2 666.9 1351.5 667C1348.9 667.1 1348.8 667.3 1350.5 668C1352.3 668.7 1352.2 668.8 1349.5 669.5C1347.9 669.9 1345.8 670.4 1345 670.8C1344.2 671.1 1343 671.4 1342.3 671.5C1341.7 671.5 1340.4 672.2 1339.3 673.1C1336.7 675.2 1329.7 678.3 1330.6 676.9C1331.1 676 1330.2 675.9 1327.1 676.4C1322.3 677.1 1316 680.1 1314 682.5C1313.1 683.6 1312.5 683.8 1312 682.9C1311.2 681.8 1310.8 682.1 1307.4 686.5C1305.9 688.5 1305.9 688.5 1306.3 686.2C1306.8 684.2 1306.6 684.1 1305.2 685.2C1303.9 686.3 1303.7 686.3 1304.3 684.7C1305.6 681.3 1303.9 683.1 1300.8 688.7C1297.2 695.1 1295.7 694.4 1299 687.8L1301.2 683.5L1296.8 687.7C1292.1 692.3 1290.7 693 1291.7 690.2C1292.1 689.1 1291.2 689.5 1289.2 691.4C1285.4 694.9 1283.9 694.2 1286.9 690.4C1290.1 686.4 1288.5 686.1 1284.5 690C1282.6 691.8 1280.7 693.1 1280.4 692.7C1280 692.3 1280.7 691.2 1281.8 690.1C1283 689.1 1284 687.9 1284 687.6C1284 686.3 1276.7 691.2 1272 695.5C1261.6 705.2 1255 708.3 1261.9 700.3C1264.1 697.7 1265.7 695.4 1265.4 695.1C1264.9 694.6 1263.3 695.8 1254 703.8C1247.8 709.1 1244.9 710.1 1248.6 705.8C1249.6 704.5 1248.2 705.6 1245.4 708.3C1239.7 713.7 1237.6 713.6 1241.9 708.1C1246.6 702.1 1246.6 701.3 1242.1 705C1232.1 713.2 1227.1 715.7 1232.6 709.8L1235.5 706.7L1231.5 709C1229.3 710.3 1226.3 712.2 1224.8 713.2C1223.4 714.2 1221.8 715 1221.3 715C1220.9 715 1218.8 715.9 1216.8 716.9C1214.9 718 1213 718.7 1212.8 718.4C1212.5 718.2 1211.3 719.1 1210 720.5C1206.8 723.9 1205 723.7 1208.1 720.3C1210 718.1 1209.8 718.2 1206.6 720.8C1202.4 724.4 1200.4 724.4 1203.7 720.7C1206.6 717.5 1207.4 715.9 1205.7 716.6C1204.9 716.9 1203.3 718.5 1202 720.2C1200.4 722.4 1199.5 722.9 1199 722C1198.2 720.7 1196.1 721.4 1188.8 725.2C1185.6 726.8 1186.9 724.6 1190.5 722.3C1192.4 721 1194.4 719 1195.1 717.8C1196.3 715.5 1196.3 715.5 1194.1 717.4C1193 718.5 1191.8 719.1 1191.5 718.8C1191.2 718.5 1191.6 717.7 1192.5 717C1193.3 716.3 1194 715.3 1194 714.9C1194 713.8 1189.7 716.4 1185.1 720.3C1181.8 723.1 1179.6 723.3 1181.9 720.6C1182.5 719.9 1179.8 721 1175.8 723.1C1166.5 728 1163.9 728.1 1171 723.2C1176.5 719.6 1189 709.9 1189 709.4C1189 708.7 1186 709.8 1183.6 711.3C1179.7 713.9 1176 715.2 1176 713.9C1176 713.3 1175.6 713.2 1175 713.5C1172.8 714.8 1174.2 712.5 1178.5 707.4L1183.1 702.1L1177.9 703.6C1170.5 705.8 1170.9 704.7 1178.7 701.5C1186.1 698.4 1190.9 695 1187.7 695C1186.8 695 1186 694.5 1186 694C1186 693.4 1187.6 693 1189.5 693C1193 693 1194.6 691.1 1191.3 690.9C1190.3 690.8 1191.9 690.4 1194.9 689.9C1200.7 688.9 1201.8 688.4 1200.6 687.3C1200.3 686.9 1197.6 687.1 1194.7 687.7C1188.7 689 1187.2 688.5 1191.8 686.8C1193.8 686 1194.8 685 1194.5 684.2C1194.2 683.3 1194.6 683 1195.9 683.5C1198.3 684.2 1203.3 682.3 1202.5 681C1202.1 680.3 1202.7 680.1 1204.2 680.5C1205.4 680.8 1209.2 680.4 1212.5 679.6C1215.8 678.8 1217.7 678.1 1216.8 678.1C1212.9 677.9 1215.3 676.3 1220.8 675.4C1224.4 674.8 1226.4 674 1226.3 673.2C1226.1 672.4 1227.5 672 1230.8 671.9C1233.4 671.8 1236.6 671.5 1238 671C1240 670.4 1239.3 670.1 1234.2 669.5C1230.8 669.1 1228.1 668.6 1228.3 668.3C1228.5 668.1 1233 667.7 1238.1 667.5C1248.2 667 1261.2 663.3 1257.5 662C1255.8 661.4 1255.9 661.3 1258.1 660.7C1259.4 660.3 1261.9 660 1263.5 660C1265.2 660 1268.8 659.3 1271.5 658.5L1276.5 657.1L1268 657.5C1261.2 657.9 1260.1 657.8 1262.8 656.9C1264.6 656.4 1268.7 655.6 1271.8 655.1C1277.3 654.4 1277.4 654.3 1274.8 653.2C1270.9 651.6 1271.3 651.2 1276.3 651.7C1279.3 652.1 1281.6 651.7 1283.6 650.6C1285.3 649.6 1285.7 649.1 1284.5 649.4C1277.1 651.2 1276.7 651.3 1277.4 650.1C1277.8 649.5 1278.8 649 1279.5 649C1280.3 649 1280.7 648.4 1280.4 647.6C1280 646.5 1280.7 646.3 1283.9 646.7C1286.3 647 1288 646.9 1288 646.3C1288 645.7 1290.7 645 1294.1 644.6C1301.8 643.8 1303.7 642.7 1298.5 641.9C1296.2 641.5 1300.2 641.2 1308 641.1L1321.5 640.9L1311.8 638.6C1302.4 636.4 1296.8 634.1 1304 635.3C1305.9 635.7 1311.1 636.2 1315.5 636.5L1323.5 637L1314.5 634.2L1319 634C1323.2 633.9 1323.3 633.8 1321 632.8C1313.6 629.5 1310.7 627.9 1313 628.4C1322.1 630.5 1335.3 632.9 1340 633.3L1345.5 633.9L1341.8 632.2C1335.8 629.5 1337.1 628 1343.8 629.9C1345.8 630.5 1346.8 630.5 1346.5 629.9C1345.7 628.7 1345.8 628.7 1351.3 630.6C1357.8 632.8 1360.5 632 1355.2 629.5C1352.9 628.4 1351 627.1 1351 626.7C1351 626.2 1351.3 626.1 1351.8 626.3C1352.2 626.6 1355 627.5 1358 628.4L1363.5 630L1361 627.9L1358.5 625.9L1361.7 626.5C1364.4 627 1364.9 626.9 1364.4 625.6C1364.1 624.8 1362.3 623.8 1360.4 623.4C1355.2 622.4 1354.9 620.7 1360.1 621.5C1362.5 621.8 1365.4 622.4 1366.5 622.6L1368.5 623.1L1366.5 621.4C1364.6 619.8 1364.6 619.8 1367.5 620.5C1369.2 620.9 1373.3 621.8 1376.7 622.5C1380.1 623.3 1383.8 624.4 1384.9 624.9C1388.6 627 1388.5 626 1384.5 622.5L1380.5 619L1388.9 622C1393.5 623.7 1397.7 625.3 1398.3 625.7C1398.8 626 1401.9 626.2 1405.1 626.1C1410.2 626 1418 627.9 1418 629.4C1418 629.7 1416.3 629.7 1414.3 629.4C1410.8 628.9 1411 629.1 1416.4 631.5C1419.7 632.9 1423.1 634.6 1423.9 635.4C1424.8 636.1 1427.8 637.5 1430.6 638.4C1433.4 639.3 1436.6 640.7 1437.6 641.5C1439.4 642.8 1439.4 642.9 1437 642.4C1434.6 641.9 1434.5 641.9 1436.5 643.5C1437.6 644.4 1443.5 647.6 1449.5 650.6C1462.4 657.2 1464.7 659 1455.5 655.5C1454.2 655 1453.8 655 1454.5 655.7C1455.9 657 1475.9 665.4 1476.4 664.9C1476.7 664.6 1476 660.9 1474.9 656.5C1473.9 652.1 1469.6 634.8 1465.6 618C1461.5 601.2 1456.7 583 1455 577.5C1447.8 555 1432.9 528.4 1411.9 500.4C1392.6 474.7 1359.2 439.6 1347.7 433C1334.2 425.2 1322.7 415.3 1312.2 402.5L1308.9 398.5L1311.5 403.8C1315.1 411.2 1314.2 412.1 1309.6 405.8C1300.5 393.5 1292.1 385.6 1283 380.5C1281.8 379.8 1281.8 380 1283.1 381.6C1285.7 384.7 1290.2 392.9 1289.8 393.9C1289.7 394.4 1286.4 391.9 1282.5 388.3C1276 382.2 1262 370.3 1257.5 367C1256 365.9 1256.1 366.3 1257.9 368.3C1259.4 370 1260 371.4 1259.4 371.9C1258.9 372.5 1255.3 370.2 1250.5 366.3C1239.8 357.7 1216.8 342.3 1210 339.2C1203.2 336.2 1189 330.9 1189 331.4C1189 331.6 1191.3 333.2 1194 335C1198.5 337.9 1200.9 340.9 1197.7 339.7C1184.7 334.7 1145.1 322.3 1136.5 320.5C1130.2 319.2 1124.5 317.8 1123.9 317.4C1123.3 317.1 1113.4 316.8 1101.9 316.9C1090.4 317 1081 316.8 1081 316.5C1081 316.2 1081.9 315.6 1082.9 315.2C1086.1 314.1 1071.1 314.4 1062 315.7ZM413.9 653C413.1 653.1 379.6 673.6 365.5 682.6C316.6 714 280.8 745.2 259.8 775C255.3 781.4 248 793.6 248 794.8C248 795.1 250.3 792.7 253.2 789.4C263.7 777.4 280.9 760.5 294 749.1C311.9 733.6 320.7 726.7 357.5 699C387.7 676.3 407 660.9 411.9 655.6C413.3 654.2 414.2 653 413.9 653ZM550.5 794.1C549.4 790.8 549.2 791.2 545.1 808.1C531.9 861.7 514.5 886.3 482.6 896.7C478 898.2 474.3 899.7 474.5 900.1C474.8 900.4 473.8 900.5 472.5 900.2C471.1 900 470 900.2 470 900.7C470 901.3 472.6 902.2 475.7 902.9C508.9 909.5 539.1 888 550.6 849.5C553.9 838.4 555.1 816.2 553 804.6C552.3 800.7 551.2 796 550.5 794.1ZM1727.5 808.3L1723.9 801.5L1724.5 807C1724.9 810 1725.6 816.3 1726.1 821C1728.9 844.2 1726.6 878.2 1720.4 905.5C1712.7 939.2 1698.1 973.8 1677.5 1006.5C1676.5 1008.1 1676.3 1008.9 1677 1008.2C1679.3 1006.2 1680.3 1006.8 1678.8 1009.2C1678.1 1010.5 1676.8 1012.8 1676.1 1014.5L1674.8 1017.5L1677.7 1014.7C1679.3 1013.2 1680.9 1012 1681.3 1012C1682 1012 1676.9 1020.9 1674.5 1024C1673.9 1024.8 1672.3 1027.3 1671 1029.5L1668.6 1033.4L1672.5 1030.5C1686.6 1020.1 1702.5 1004.6 1714.5 989.5C1716.1 987.6 1716.1 987.6 1715.4 990C1714.4 993.7 1702.7 1014.7 1694.4 1027.7C1692.5 1030.6 1691.3 1033 1691.7 1033C1693 1033 1704 1020.5 1711.6 1010.5C1715.8 1005 1719.6 1000 1720.2 999.5C1721.7 997.9 1714.7 1013 1702 1038.5L1690 1062.5L1699.2 1053C1723.9 1027.3 1745.1 991.7 1756 957.5C1765.2 928.8 1768.7 899.5 1766 874.2C1763.9 855.1 1757.8 831.8 1752.1 821.4L1749.9 817.5L1750.5 822.5C1750.8 825.2 1751.3 832.2 1751.5 838L1752 848.5L1749.3 841L1746.5 833.6L1745.9 847.5C1745.5 855.2 1744.8 862.6 1744.2 864C1743.6 865.4 1743.1 866.3 1743 866C1742.8 865.3 1742.3 860.8 1741.5 853.5C1740.7 845.5 1737.4 832.3 1733.9 822.8C1732.4 818.6 1729.5 812.1 1727.5 808.3ZM1765.3 826.1C1768 837.2 1775.3 880.9 1776.5 893.1C1778.9 917.6 1778.5 920 1774.4 903.6C1771 889.6 1769.1 884.7 1770.4 893C1774.2 916.6 1775.1 951.8 1772.5 973C1769 1001.8 1758.2 1035.7 1745.3 1058.4C1728.8 1087.6 1700 1116.7 1668 1136.4C1663 1139.5 1656.8 1142.9 1654.2 1143.9C1649.1 1145.9 1631.8 1149.9 1627.3 1150.1C1624.8 1150.2 1624.9 1150.3 1628 1150.9C1629.9 1151.3 1633 1151.5 1634.8 1151.4C1639.4 1151.1 1638.8 1152.5 1633.5 1154.6C1625.7 1157.5 1629.4 1157.3 1639.7 1154.1C1649.8 1151 1657 1149.5 1657 1150.4C1657 1150.7 1654.3 1152.3 1651 1154C1647.7 1155.7 1645 1157.2 1645 1157.5C1645 1158.1 1658.5 1153.1 1668.1 1149C1675.8 1145.7 1679.9 1145 1676.7 1147.4C1675.8 1148.1 1670.2 1151.3 1664.4 1154.5C1658.7 1157.7 1654.1 1160.4 1654.3 1160.7C1655.4 1161.7 1680.9 1152 1692.5 1146.2C1712.9 1136 1727.7 1125.2 1744 1109C1793.1 1060.1 1810 994 1794.1 913.5C1789.8 891.7 1778.6 855.1 1770.1 834.5C1765.8 824.4 1764.2 821.5 1765.3 826.1ZM395 864.2C395 867.7 400.7 885.5 404.1 893C407.9 901.1 413.9 911.4 414.5 910.8C415.1 910.2 409.1 881.1 407.3 876.1C406.3 873.2 404 869 402.2 866.9C399 863.1 395 861.7 395 864.2ZM1654.8 873.3C1655.1 876 1653.9 882.3 1648.3 909.3C1647.9 911.3 1647.4 911.8 1646.6 911C1645.7 910.3 1644.7 911.4 1643 914.8L1640.6 919.5L1639.6 915.7C1639.1 913.7 1638.2 912 1637.6 912C1636 912 1629.5 923.3 1624.4 935.1C1619 947.3 1613.5 966.6 1612.5 976.9L1611.8 984.3L1614.6 982.1C1618.5 979.1 1618.6 980.1 1615.6 993C1613.7 1001.5 1613.5 1003.6 1614.6 1003.8C1615.4 1004 1616 1004.3 1616 1004.4C1616 1004.6 1614 1009.7 1609.9 1019.8C1609.1 1021.9 1609.1 1022 1611.3 1020.5C1612.5 1019.7 1614.8 1017.7 1616.3 1016C1619 1013.2 1621.9 1011.8 1620.5 1014C1619.5 1015.6 1615.9 1029.2 1616.3 1029.6C1617 1030.3 1628.1 1016.6 1634.2 1007.5C1641.9 995.9 1652.1 975.1 1656 963C1666.5 930.8 1667.7 900.1 1659.5 878.8C1656.4 870.9 1654.2 868.4 1654.8 873.3ZM184.8 970.4C184.4 968.5 176.9 977.3 172.4 984.8C168.4 991.6 161.8 1001 161 1001C160.5 1001 161.5 980.2 162.4 974L162.9 970.5L160 973.9C157.1 977.3 149 992.3 147.6 997L146.8 999.5L146.1 996.5C145.4 993.7 145.2 993.9 143.3 1000.1C136.8 1020.5 138.2 1042.8 147.3 1062.2C150.7 1069.4 158.7 1081.3 166.4 1090.4C170.6 1095.3 178.8 1102.5 179.5 1101.8C179.7 1101.6 178.2 1096.4 176 1090.2C173.8 1084 172.5 1079 173 1079C173.5 1079 175.6 1080.7 177.5 1082.7C180.1 1085.5 181 1085.9 180.6 1084.5C180.4 1083.4 179.6 1074.2 178.9 1064C177.4 1039.1 178.7 1014.3 183.1 985.2C184.2 977.8 185 971.2 184.8 970.4ZM345.6 1029.4L343.1 1025.6L341.5 1029.3C340.7 1031.3 340 1033.6 340 1034.5C340 1037 338.2 1036.2 335.7 1032.5L333.3 1029L332.2 1032.9C331.5 1035 331 1038.4 331 1040.4C331 1045.4 329.6 1044.9 327 1038.7L324.8 1033.5L322.4 1038.5C321.1 1041.2 320 1044 320 1044.7C320 1045.3 319.6 1046.1 319.1 1046.4C318.6 1046.7 317.2 1043.5 315.9 1039.4C313.6 1031.8 313.5 1031.8 312.3 1034.6C311.6 1036.2 310.3 1039.9 309.4 1042.8C308.5 1045.8 307.5 1047.8 307.1 1047.3C306.7 1046.9 305.6 1043.9 304.5 1040.7C303.5 1037.6 302.4 1035 302 1035C301.2 1035 298.5 1043.9 297.5 1049.4C297.2 1051.5 296.7 1053 296.4 1052.7C296.1 1052.4 295.1 1047.6 294.1 1041.9L292.3 1031.5L290.7 1035C289.8 1036.9 288.5 1041.1 287.8 1044.3C286.6 1050.2 285 1051.2 284 1046.9C283.3 1044.2 278.4 1068.4 277.4 1079C277.1 1082.6 276 1089.1 275 1093.5C273.9 1097.9 272.8 1104.9 272.5 1109C271.9 1115.9 273.1 1133.1 274.6 1139C275.2 1141.2 275.1 1141.3 273.8 1140C273 1139.2 271.4 1136.2 270.2 1133.5C269.1 1130.7 265.5 1122.9 262.2 1116.1C255.5 1102.1 255.4 1102.1 254.3 1117.2C254 1122.1 253.4 1126 253.1 1126C252.7 1126 250.2 1121 247.5 1115C244.7 1108.9 242.2 1104 241.9 1104C240.8 1104 239.9 1117.5 240.6 1122.8C241 1126 240.8 1128 240.1 1128.4C239.4 1128.9 239 1127.9 239 1125.5C239 1120 237.4 1122.2 235.6 1130.2C232.9 1142 232 1145 231.1 1145C230.6 1145 229.7 1147.3 229 1150.1C227.6 1155.9 226.9 1155.6 224.9 1148.5L223.6 1143.5L221.8 1149.4C220.8 1152.6 219.3 1161.3 218.4 1168.7C217 1180 216.9 1184.8 217.9 1199.8C219.2 1221.4 221.4 1231 228 1244.6C235.9 1260.8 247 1273.4 261.8 1282.9C267.1 1286.2 278.1 1291.2 278.8 1290.5C279 1290.3 276.7 1287 273.7 1283.3C265.8 1273.3 252.7 1253.9 253.5 1253.2C253.8 1252.9 254.7 1253 255.4 1253.5C263.2 1259.1 266.2 1261.1 266.5 1260.8C266.7 1260.6 263.8 1253.5 260 1245C256.3 1236.5 253.7 1229.3 254.1 1229.2C254.6 1229 256.4 1230.1 258 1231.7C260.9 1234.5 275.6 1242.7 276.4 1241.9C276.6 1241.7 274.5 1238 271.8 1233.7C269 1229.4 267 1225.7 267.3 1225.4C267.6 1225 270 1226.6 272.7 1228.8C277.2 1232.5 285.9 1238 287.3 1238C287.6 1238 285.8 1234.3 283.3 1229.7C277.2 1218.7 270.7 1205 271.2 1204.4C271.5 1204.2 273 1205.6 274.6 1207.7C278.2 1212.6 287.6 1221.9 292 1225C295 1227.1 295.3 1227.2 294.6 1225.4C294.1 1224.4 293.4 1222.3 293 1220.8C292.5 1219.2 289 1210.2 285.1 1200.7C281.2 1191.1 278 1183 278 1182.6C278 1182.2 280.6 1184.2 283.8 1187C286.9 1189.8 292.5 1193.5 296.2 1195.3C300.1 1197.2 303.5 1199.5 304.4 1201.1C307 1205.4 324.1 1222.1 332.6 1228.5C336.9 1231.8 345.5 1239.2 351.5 1245C362.4 1255.4 377 1267.5 375.5 1264.9C375 1264.1 371.2 1258.3 367 1252C357.2 1237.4 349.6 1225.5 344.1 1216C341.7 1211.9 338.9 1207.3 338 1205.9C335 1201.5 329.8 1190.8 330.4 1190.2C330.8 1189.9 332.5 1191 334.3 1192.6C337.4 1195.5 342.9 1199.7 346 1201.5C347.3 1202.3 347.2 1202 345.9 1200C344 1197 326.5 1163.5 323.3 1156.7C321.2 1152.1 321.5 1150.5 324 1153.5C325.6 1155.4 339.9 1164.5 342.7 1165.4C344.5 1166 343 1163.1 335.6 1151.6C325.9 1136.6 313.4 1113.3 314.4 1112.2C314.8 1111.9 317.1 1113.8 319.7 1116.4C324.8 1121.7 332.5 1127.1 338.3 1129.5C342.3 1131.1 342.9 1130.6 340.5 1127.4C337.8 1123.8 338.7 1122.7 342.6 1125C344.5 1126.2 346.3 1127 346.6 1126.7C347.2 1126.2 336.3 1098.2 334.8 1096.3C333.3 1094.5 335.8 1093.7 337.6 1095.5C339.8 1097.7 347.8 1101.6 352 1102.5C353.9 1102.9 356.7 1104.2 358.2 1105.3C359.7 1106.4 361.3 1107.1 361.6 1106.7C361.9 1106.4 361.7 1102.4 361.1 1097.9C360.5 1093.4 360.2 1089.5 360.4 1089.3C360.6 1089.1 362.4 1089.9 364.4 1091.1C366.4 1092.3 368.3 1093.1 368.5 1092.9C368.7 1092.6 368.3 1089.3 367.5 1085.5C365.6 1075.5 358.6 1055.2 353 1043.4C350.4 1037.8 347.1 1031.5 345.6 1029.4ZM147 1092.8C147 1093.4 147.7 1098.8 148.6 1104.7C149.9 1113.6 150.9 1117 154.4 1124C156.8 1128.7 159.7 1134.1 160.9 1136L163.2 1139.5L162.6 1134.5C162.2 1131.7 161.5 1125 160.9 1119.5C159.9 1110.3 159.5 1108.9 155.5 1102.5C151.1 1095.4 147 1090.7 147 1092.8ZM446.9 1110L436.3 1099.5L438.7 1105.5C450.5 1134.2 490.7 1198 500.3 1203.2C502 1204.1 502.2 1204 501.7 1202.6C501.1 1201 498.3 1181.2 496 1161.5C494.2 1146 491.8 1142 480.5 1135.3C477.2 1133.3 470.7 1129.2 466 1126.1C461.4 1123 452.8 1115.8 446.9 1110ZM1729.5 1187C1728.1 1189.2 1709.6 1205.1 1700.2 1212.2C1664.8 1238.7 1625.8 1255.1 1585.5 1260.5C1582.8 1260.9 1579.4 1261.4 1578 1261.6C1576.6 1261.8 1567.9 1262.3 1558.7 1262.7L1541.8 1263.3L1546.7 1265.2C1565.3 1272.5 1588.9 1275.3 1609 1272.7C1636.8 1269 1660.1 1260.2 1682.3 1244.7C1701.7 1231.1 1722.4 1207.3 1729.5 1190.4C1730.9 1186.9 1731 1184.6 1729.5 1187ZM212.5 1210.5L210.3 1200.5L209.5 1208.4C209.1 1212.8 209 1220 209.3 1224.4C209.7 1230 209.6 1232 208.9 1230.8C207.1 1227.6 203 1214 203 1211C203 1204.6 201.2 1207.6 200 1216C198.5 1226.5 199.1 1240.1 201.5 1251.5C209.6 1290 239.1 1329.3 276.8 1351.7C281.6 1354.6 287.8 1358.7 290.5 1360.8C314.7 1379.9 346.9 1395.1 372 1399.4C376.7 1400.2 380.6 1400.7 380.8 1400.6C380.9 1400.4 377.8 1398.8 373.8 1397C361.4 1391.3 335.2 1375.5 335.1 1373.7C335 1373.2 338.6 1373 343 1373.2C347.3 1373.4 350.6 1373.2 350.2 1372.9C349.8 1372.6 346.6 1371.3 343 1370C339.4 1368.7 330.5 1364.8 323.2 1361.2C308.1 1353.8 301.7 1348.7 281.5 1327.9C251.5 1297 230.1 1264.1 218.4 1230.6C216.4 1225 213.8 1216 212.5 1210.5ZM455.1 1344C454.4 1341.7 454.3 1341.8 453.7 1345.5C453.3 1347.7 453 1350.9 453 1352.5C453 1354.2 452.6 1356 452.2 1356.5C451.8 1357.1 451.7 1362.6 452 1368.8C452.3 1375 452.3 1380.5 452.2 1381.1C452 1381.6 450.3 1379.7 448.4 1376.8L445.1 1371.5L445 1378.5C445 1382.3 445.5 1387.3 446 1389.5L446.9 1393.5L443.2 1389.3C441.2 1387 437.7 1382.8 435.5 1380C429 1371.7 426 1368.5 426 1370.1C426 1372.9 431.1 1390.6 434.1 1398.5C439.2 1411.6 450.4 1433.9 456.8 1443.5C467.5 1459.6 482.3 1474.9 497 1485.2C504.6 1490.5 516.2 1496.6 520.5 1497.6C523.3 1498.3 523.4 1498.2 522 1496.3C516.1 1488.3 512 1482 512.6 1482C512.9 1482 515.3 1483.5 517.9 1485.3C524.5 1490.1 532.4 1494.4 531.4 1492.8C530.9 1492 527.6 1486.8 524 1481.2C510.7 1460.2 499.5 1441.4 491.3 1426.3C489.3 1422.5 486.8 1417.9 485.7 1416C484.6 1414.1 481.7 1408.7 479.2 1404C476.7 1399.3 472.6 1391.7 469.9 1387C467.3 1382.3 464.5 1376 463.7 1373C462.9 1370 460.8 1362.8 459 1357C457.3 1351.2 455.5 1345.4 455.1 1344ZM362 1473.3C362 1475.4 376.5 1500.1 378.9 1502C379.2 1502.3 381.4 1505 383.7 1508C389.4 1515.5 408.7 1534.1 418.5 1541.6C434.9 1554 450.9 1563.4 464.3 1568.5C472.3 1571.5 472.3 1570.9 463.6 1561.3C457.4 1554.5 456.7 1552.7 460.6 1553.4C462 1553.7 463.8 1553.6 464.6 1553.3C466.4 1552.7 467.4 1553.5 437 1530.8C427.9 1524 411.9 1511.5 401.5 1502.9C391 1494.4 378.5 1484.4 373.5 1480.9C363.7 1473.8 362 1472.7 362 1473.3ZM1412.4 1505.1C1402.5 1524.3 1399 1554.4 1403.9 1577.7C1406.4 1589.8 1409.8 1599.7 1415 1610C1418.6 1617.1 1427.7 1629.8 1429.2 1629.9C1430.3 1630 1429.5 1618.7 1424.9 1567.5C1419 1501.1 1418.7 1498.7 1416.1 1506C1414.7 1510.1 1413.6 1509.8 1414.3 1505.5C1415 1501.2 1414.5 1501.1 1412.4 1505.1ZM486.7 1611.2C484.7 1609.2 483 1607.8 483 1608C483 1608.3 483.7 1610.7 484.5 1613.5C486.9 1621.3 489.9 1639.2 491.5 1654.9C492.3 1662.9 493.3 1669.6 493.6 1669.9C494.8 1671 493.1 1629.6 491.7 1622.2C490.6 1616 489.8 1614.3 486.7 1611.2ZM596.8 1677.9C596.6 1676.2 596.1 1676.9 594.7 1680.8C593.7 1683.6 590 1689.7 586.5 1694.2C573.6 1711 571.5 1713.7 563.1 1724C552.3 1737.3 531.5 1758.1 522.9 1764.3C514.4 1770.3 507 1772.3 493 1772.2C476.3 1772.2 463 1768.1 448.4 1758.5C443.2 1755.1 439 1752.8 439 1753.5C439 1755 448.6 1763.5 456.7 1769.3C462.5 1773.5 474.2 1779.2 481 1781.1L485.5 1782.3L482 1783.1C480.1 1783.6 473.8 1784.3 468.1 1784.6L457.7 1785.3L464.8 1788.1C468.7 1789.7 476.5 1791.6 482.6 1792.4C495.4 1794.3 498.4 1794.9 497.7 1795.6C497 1796.3 482.5 1799.7 476.5 1800.5C468.3 1801.7 468 1802.7 475.5 1803.5C485.1 1804.6 500 1803.5 509.5 1801C519.3 1798.5 543.2 1786.7 552.6 1779.6C578.3 1760.5 593.7 1732.2 597.1 1697.6C597.6 1691.5 598.8 1684.3 599.6 1681.6C600.9 1676.8 600.9 1676.7 599.1 1678.4C597.2 1680.1 597.1 1680.1 596.8 1677.9ZM1421 1740C1421 1740.8 1421.7 1747.6 1422.4 1755C1426.8 1796.5 1426.5 1831.3 1421.4 1868.9C1420.1 1879 1419.1 1887.5 1419.4 1887.7C1420.2 1888.6 1428.1 1866.9 1430.5 1856.8C1439 1821.9 1437.4 1785 1426 1750.5C1422.8 1741 1421 1737.2 1421 1740ZM224.5 1831.5C221.4 1827 221 1826.8 221 1829.1C221 1833.5 224.8 1847 228.2 1854.4C240.3 1881.3 262.7 1900.7 290 1908.1C302.8 1911.5 319.6 1911.4 335 1907.6C355.2 1902.7 364 1900.1 371.6 1896.5C378.8 1893.2 389 1887.2 389 1886.2C389 1885.9 387 1886 384.5 1886.3C382 1886.7 380 1886.6 380 1886.2C380 1885.8 382.8 1884 386.3 1882.3C389.7 1880.6 394.6 1877.7 397.3 1875.8L402 1872.3L386 1872.8C374.5 1873.1 370 1872.9 370 1872.1C370 1871.4 366.6 1871 359.4 1871C347.4 1871 332.5 1869 317 1865.4C302.3 1862 293.3 1858.9 278.4 1852.4C271.3 1849.3 264.7 1846.7 263.8 1846.7C262.8 1846.6 262 1846.3 262 1845.9C262 1845.5 261.3 1844.9 260.5 1844.6C259.5 1844.3 260.1 1845.7 262 1848.5C265.4 1853.5 264.9 1854 259.6 1850.9C257.6 1849.7 256 1849.1 256 1849.6C256 1850.4 260.1 1856 262.5 1858.4C264.1 1859.9 263.8 1862 262 1862C261.5 1862 256.4 1859.8 250.6 1857.1C240.5 1852.3 239.9 1851.8 234.1 1844.3C230.7 1840 226.4 1834.3 224.5 1831.5ZM420.1 1830.1C418.7 1830.2 401.1 1832.7 400.1 1832.9C399.3 1833.1 402.7 1836.4 406.6 1839.1L410.9 1842L418.4 1838.3L426 1834.6L423.8 1832.3C422.6 1831 420.9 1830.1 420.1 1830.1ZM1670.8 1835.8C1670.6 1835.3 1667.9 1838 1664.8 1841.7C1661.7 1845.4 1655.3 1852.3 1650.6 1856.8C1643 1864.3 1641.9 1865.8 1640.6 1870.8C1639.8 1874 1639.4 1876.7 1639.6 1876.9C1640.2 1877.5 1658.6 1860.3 1663.6 1854.4C1667.1 1850.4 1668.5 1847.6 1669.6 1842.9C1670.4 1839.5 1670.9 1836.3 1670.8 1835.8ZM1661.7 1870.1C1661.54 1870.15 1658.56 1872.63 1655 1875.5C1651.4 1878.5 1645.3 1883.1 1641.4 1885.7C1634.4 1890.3 1634.1 1890.7 1628.9 1901.4C1618.5 1922.6 1608.2 1937 1592.2 1952.8L1582.7 1962.2L1588.9 1958.3C1602 1950.3 1620.1 1935.7 1633.1 1922.8C1645.6 1910.5 1646.9 1908.9 1649.8 1901.8C1651.6 1897.5 1653.5 1890.9 1654.2 1887C1655.1 1881.9 1655.8 1880 1657 1880C1657.9 1880 1659.1 1878.1 1660.2 1875C1661.06 1872.33 1661.64 1870.21 1661.7 1870.1ZM1661.7 1870.1C1661.7 1870.1 1661.7 1870.1 1661.7 1870.1C1661.7 1870.1 1661.7 1870.1 1661.7 1870.1ZM1634.7 1871C1634.6 1871 1632.5 1872.6 1630 1874.6C1618.5 1883.7 1597.1 1895.2 1582.7 1900C1578.9 1901.2 1576 1902.4 1576.2 1902.6C1577.2 1903.5 1602.3 1897.5 1610.9 1894.4C1620.4 1890.8 1628.4 1886.9 1629.5 1885C1629.8 1884.5 1631.2 1881.2 1632.5 1877.6C1633.9 1874 1634.9 1871 1634.7 1871ZM1372.2 1882.6C1370 1885 1364.1 1904.5 1362.9 1913.7C1359.5 1939.4 1367.3 1968.7 1382.9 1988.3C1388.2 1995 1397.5 2004 1399.2 2004C1399.8 2004 1397.6 1996.8 1394.5 1988.5C1394 1987.3 1395.8 1988.5 1398.9 1991.5C1401.7 1994.2 1404 1996.1 1404 1995.8C1404 1995.5 1400.7 1987.8 1396.6 1978.8C1383.3 1949.4 1380.1 1937.5 1376.5 1902C1374.5 1883 1374 1880.7 1372.2 1882.6ZM1614 1909.1C1591.1 1929.4 1547.1 1947 1510.2 1950.6C1503.9 1951.2 1503.1 1951.4 1504.2 1952.8C1508.1 1957.5 1532.7 1965.8 1545.5 1966.7C1553 1967.2 1553.9 1967.1 1559.5 1964.2C1579.2 1954.3 1605.6 1928.2 1618.4 1906.2C1619.5 1904.3 1618.9 1904.7 1614 1909.1ZM1585.5 1910.1C1577.3 1912.7 1562.2 1914 1539 1914.1C1504.7 1914.3 1497.3 1914.1 1490.6 1912.9C1480.2 1911.1 1481.4 1915.8 1492.8 1921.8C1500 1925.6 1504.5 1926.9 1514.5 1927.9C1533.5 1930 1563.7 1923.1 1585.5 1911.7C1590.7 1909 1590.7 1908.5 1585.5 1910.1ZM1364.8 2019.7C1358.8 2011.2 1359.2 2013.4 1365.8 2024.3C1372.2 2034.9 1383.1 2046.5 1393.3 2053.3C1397.9 2056.4 1402 2059 1402.4 2059C1404.1 2059 1399.8 2054.4 1393.9 2050C1390.3 2047.3 1383.4 2041 1378.6 2036C1373.8 2030.9 1367.6 2023.6 1364.8 2019.7ZM1463.1 2059.6C1456.8 2058.9 1454.9 2059 1455.4 2059.8C1455.8 2060.5 1457.2 2061 1458.6 2061C1459.9 2061 1461 2061.4 1461 2061.9C1461 2062.4 1464.3 2063.6 1468.3 2064.6C1476.9 2066.8 1491.7 2066.8 1497.5 2064.7L1501.5 2063.3L1497.5 2062C1495.2 2061.2 1488.9 2060.6 1482.5 2060.5C1476.5 2060.5 1467.7 2060 1463.1 2059.6Z" />
		<path id="Layer" class="shp0" d="M883.7 67.9C880 72.7 874.7 83.3 869.6 96.2C866.2 104.9 866.2 106.7 869.6 103.5C871 102.2 873 100.8 874 100.5C875.3 100.1 876.8 96.9 879 89.7C880.7 84.1 882.6 77.9 883.2 76C883.8 74.1 885.3 70.4 886.7 67.7C889.7 61.6 888.4 61.7 883.7 67.9Z" />
		<path id="Layer" class="shp0" d="M1511.9 321.5C1511.6 321.7 1514.9 328.9 1519.2 337.6C1526.5 352.5 1527.1 353.4 1532.2 356.7C1535.1 358.7 1538.7 361.4 1540.2 362.8C1544.1 366.4 1544.8 364.8 1541.2 360.3C1534 351 1524 336.9 1524 336C1524 335.5 1523.4 334.7 1522.7 334.3C1522 333.9 1519.4 330.7 1516.9 327.3C1514.4 323.8 1512.1 321.2 1511.9 321.5Z" />
		<path id="Layer" class="shp0" d="M768.4 659.9C762.3 661.5 756.5 663.2 755.4 663.8C754.4 664.3 750.9 664.8 747.6 664.9C738 665.1 728.4 668.5 723.4 673.5C722.2 674.8 716.8 677.2 711.5 679C701.2 682.4 699.6 683.9 708.1 682.1C710.9 681.5 713.5 681.1 713.7 681.4C713.9 681.6 712.5 682.8 710.6 684C708.6 685.2 706.7 686.7 706.3 687.5C705.8 688.2 703.5 689.7 701 690.9C696.6 693 692.1 696 687 700C685.6 701.1 679.6 704.8 673.7 708.1C667.7 711.4 663 714.4 663.3 714.6C663.5 714.8 665.6 714.3 668 713.5C670.4 712.7 672.5 712.2 672.7 712.4C672.9 712.6 670.3 714.5 667 716.6C660.5 720.6 660.2 722.2 666.4 719.6C668.4 718.8 670 718.2 670 718.4C670 718.5 667.5 720.4 664.4 722.5C658.2 726.8 644.5 741 641.6 746.2C640.4 748.4 642.1 747 646.8 742C657.9 730 666.4 723.7 663 729.9C662.4 731.1 662.1 732 662.4 732C662.6 732 665.6 729.3 669.1 725.9C672.6 722.5 675.6 720.3 675.8 720.9C676.1 721.8 676.6 721.8 677.5 721C678.6 720.1 678.7 720.3 678.3 721.9C677.5 724.9 678.5 724.5 680.9 720.7C682 719 683 718.1 683 718.8C683 719.8 683.8 719.6 685.8 718.2C689.8 715.4 699.3 710.7 698.5 711.9C697.5 713.6 699.9 713.2 702.8 711.1C706.9 708.2 715.2 705 719.3 704.6C721.4 704.4 723.3 704 723.7 703.6C724 703.3 725.2 703 726.3 703C727.9 703 728 703.3 727 704.5C726.2 705.4 726.1 706 726.8 706C727.4 706 728.1 705.6 728.5 705.1C729 704.2 730.9 703.1 737.8 699.6C741 698 749.2 696.4 747.1 697.8C746.2 698.4 750.5 699 759.1 699.5C766.5 699.8 776.1 700.8 780.5 701.5C790.5 703.2 803.7 704.4 802.9 703.6C802.5 703.2 799.4 702 795.9 701L789.5 699L797 699.6C801.5 700 810 701.9 818.3 704.5C825.8 706.8 832 708.4 832 708.1C832 707.7 829.9 706.4 827.4 705.2C819.9 701.5 822.9 701.7 832.3 705.5C842.4 709.6 845.1 709.9 839.5 706.5C833.7 702.9 836.9 703.5 847.6 707.9C857.5 712.1 859.7 712.1 853 708C850.9 706.7 849.3 705.4 849.5 705.2C849.7 705 851.9 706.2 854.3 707.9C859.1 711.2 868 715 870.8 715C871.7 715 870.1 713.6 867.3 712C864.4 710.3 862 708.7 862 708.4C862 706.7 872.4 709.8 877.9 713.1C881.5 715.3 884.9 717 885.4 717C886.6 717 881 712.1 879.8 712C879.3 712 879 711.5 879 710.9C879 710.3 880.6 710.7 882.6 711.9C886.8 714.4 887.7 714.5 885.9 712.4C885 711.3 886.2 711.6 889.7 713.4C896.2 716.6 897.4 716.7 893.5 713.5C890.8 711.3 890.7 711 892.6 711C893.7 711 897.6 713.5 901.3 716.5C908.2 722.2 909.6 723 908.7 720.5C908.3 719.7 910.7 720.9 913.8 723C922 728.7 922.5 727.9 915 720.9C910.4 716.7 909.4 715.3 911.5 716.4C913.2 717.2 916.3 719.7 918.5 721.9C922.8 726.5 925.1 727.3 922.6 723.5C921.7 722.2 921 720.8 921 720.5C921 719.4 932.5 725.2 941.7 730.9C951.4 737 956.3 739.1 950 734.5C948.1 733.1 946.5 731 946.3 729.8C946.1 728.5 944.9 726.7 943.7 725.7C941.9 724.2 941.9 723.9 943.3 724.4C944.3 724.7 945.5 725 945.9 725C946.4 725 949.7 727.2 953.4 730C960.6 735.4 962.1 735.4 956.5 730C954.6 728.1 953 726.3 953 726C953 724.6 970.9 728.1 976.3 730.6C982.9 733.5 984.7 733.3 979.8 730.1C978 729 977 728 977.5 727.9C978.1 727.9 977.6 727.5 976.5 727C974.5 726.1 974.5 726.1 976.5 726.1C977.7 726 980.3 726.9 982.5 728C986.9 730.3 988.4 730.5 987.4 728.9C986.6 727.6 986.9 727.7 993.5 731.2C996.3 732.6 1000.7 735.7 1003.3 738C1008.5 742.6 1011 742.7 1006.8 738.2C1005.5 736.7 1003.3 733.8 1002 731.6L999.7 727.8L1002.1 728.5C1007.6 730.1 1015.7 733.2 1017.8 734.6C1022.4 737.6 1022.1 735.3 1017.4 731.6C1014.7 729.5 1013.4 728 1014.5 728.3C1026.2 731.6 1028.1 731.5 1022.8 728.1C1018.8 725.6 1020 725.4 1026.4 727.6C1034.3 730.3 1032.7 728.4 1023.3 723.9C1015.6 720.2 1014.8 719.6 1017 719C1018.7 718.5 1017 718.1 1011.4 717.5C1006.9 717.1 1001.5 716 999.4 715L995.5 713.2L1000.2 713.1C1005.2 713 1008 711.1 1003.3 710.9L1000.5 710.8L1003 710C1006.1 709 1005.4 708.9 991 708.1C980.6 707.5 980 707.4 984.5 706.6C987.3 706.2 990.2 705.6 991 705.2C993.4 704.3 980.4 703.3 970.5 703.7C961.6 704.1 961.5 704.1 964.5 702.4C966.2 701.4 970.4 699.6 974 698.4L980.5 696.1L975.9 696.1C973.3 696 967 697.1 961.9 698.4C956.7 699.7 950.3 701 947.5 701.4C943 702 943.6 701.6 952.9 698C966.9 692.6 967.7 691.5 955.5 694.5C948.1 696.3 947.3 696.3 948.8 694.8C950.8 692.8 950.1 692 946.8 692.7L943.5 693.3L947.8 690.1C950.2 688.3 952 686.6 951.7 686.3C951.4 686.1 948.5 686.8 945.3 688C941.8 689.2 937.7 690 935.4 689.8L931.5 689.5L934.5 687.7L937.5 685.9L931.5 686.5C926.1 687 925.7 686.9 927.5 685.6C929.3 684.3 928.9 684.2 923 684.6L916.5 685L921 683.6L925.5 682.2L921.2 682.1C918.6 682 917.1 681.6 917.5 681C918.3 679.7 917.7 679.7 914.6 681.1C911.9 682.4 900.6 681.4 901.5 680C901.8 679.6 899.2 679.4 895.8 679.6C889.8 680 889.7 679.4 895.4 677.6C900 676.1 895.4 676.1 886.7 677.5C881.5 678.4 875.9 679 874.4 678.8L871.5 678.5L875.9 675.5C880.8 672.2 880.1 671.1 874.4 673.5C867.9 676.2 869.6 674.3 877.2 670.5C890.4 663.8 889 663.1 874.4 669.1C864.7 673.1 857.4 674.7 858.7 672.7C859.1 672.1 858.3 672 856.6 672.4C853.1 673.3 853.3 672.6 857.3 670.1C861.3 667.5 860 667.4 853.5 669.9C850.8 670.9 846.3 672 843.5 672.4L838.5 673L842.3 670.9C847 668.4 846.5 667.4 841.4 669C838.5 670 837.5 670 837.2 669.1C837 668.4 835.7 668.2 833.7 668.5C831.9 668.9 829.4 668.7 828 668.2C825.6 667.2 825.6 667.1 830.3 665C832.9 663.9 835 662.7 835 662.4C835 661.5 826.8 663.1 821.5 665.1C813 668.3 814 667.1 823 663.4C827.7 661.4 831.9 659.5 832.4 659C832.9 658.5 828.3 659.4 822.2 661C816.1 662.5 809.3 663.8 807 663.8C804.8 663.8 802.6 664.2 802 664.5C801.5 664.8 801 664.6 801 663.9C801 663.1 799.7 662.9 796.5 663.3C794 663.7 792 663.8 792 663.6C792 663.3 794.2 662.4 797 661.5C802.5 659.7 804.9 657.6 799.8 659.1C798 659.6 792.6 660.3 787.7 660.5C782.9 660.8 777.2 661.4 775 661.9C769.6 663.1 770.8 661.6 776.5 660C780.8 658.8 783.6 656.9 780.8 657.1C780.1 657.1 774.5 658.4 768.4 659.9Z" />
		<path id="Layer" fill-rule="evenodd" class="shp0" d="M1332.5 711.5C1353.4 712.1 1369.5 715.5 1384.7 722.5C1389.8 724.9 1392.1 725.5 1392.9 724.7C1393.7 723.9 1394 724.1 1394 725.5C1394 726.6 1395.6 728.8 1397.6 730.4C1400.5 732.7 1401.4 733 1402.1 731.9C1402.6 731.1 1403 729.9 1403 729.2C1403 728.6 1403.5 728 1404 728C1405.2 728 1405.2 727.8 1404.1 731.7C1403.2 734.6 1403.6 735.6 1407.7 741.7C1410.2 745.5 1412.7 748.5 1413.3 748.5C1413.9 748.5 1415.3 747.1 1416.5 745.4C1421.2 738.1 1421.1 738.2 1420.4 742C1420 743.9 1418.9 747.3 1417.8 749.5L1415.9 753.5L1419 750C1422.7 745.8 1422.9 746.8 1419.5 752.6L1417 756.9L1420.1 761.4C1421.8 763.9 1423.7 766 1424.4 766C1425 766 1427.3 765.1 1429.5 764C1434.9 761.2 1435.3 762.5 1430.3 767C1426.6 770.3 1426.2 770.9 1427.5 772C1428.4 772.7 1428.8 773.5 1428.5 773.8C1428.3 774.1 1427.4 773.7 1426.5 773C1424 770.9 1423.4 772.8 1425.8 775.2L1427.9 777.4L1436.3 773.2C1441.4 770.7 1447.2 766.7 1451.3 763C1455 759.6 1458 757.4 1458 758.2C1458 758.9 1455 763 1451.4 767.2C1447.8 771.5 1445.2 775 1445.5 775C1445.8 775 1448.3 773.8 1451.1 772.4C1457.4 769.3 1464.2 763 1468.6 756.5C1472.7 750.5 1473 751.2 1469.4 758.3C1465.9 765.2 1457.1 773.6 1448.5 778.3C1444.3 780.6 1442.6 781.9 1444.4 781.5C1445.9 781.2 1448.6 780.7 1450.4 780.4L1453.5 780L1450.3 781.5C1445.4 783.7 1446.3 784.1 1452.3 782.4C1458.3 780.6 1466.1 777.1 1470.8 774C1472.5 772.8 1474 772.2 1474 772.8C1474 774.1 1468.7 778.1 1461.5 782C1458.2 783.8 1454.7 786 1453.8 786.8C1452.9 787.6 1449.3 789.3 1445.8 790.6L1439.5 793.1L1447.5 792.6C1457 792.1 1469.6 788.3 1476 784.1C1478.4 782.4 1480.7 781.3 1481 781.6C1481.6 782.3 1477.8 785.2 1469.6 790.4L1463.5 794.2L1467.5 793.5C1469.6 793.1 1472.7 792.2 1474.3 791.3C1479.9 788.4 1478.1 790.9 1470.8 796C1462.3 802 1451.4 807.5 1445 808.9C1432.2 811.9 1426.5 809.3 1411 793.8C1399 781.8 1389.8 775.1 1377.7 769.5C1368.9 765.5 1356.9 761.7 1354 762.2C1352.1 762.5 1352.1 762.7 1355.3 767.5C1360.6 775.4 1362.5 782 1362.4 793C1362.3 800.4 1361.8 803.8 1360 808.5C1347.8 840.2 1308.3 848.7 1284.8 824.8C1278.6 818.5 1276.8 815.6 1273.9 807.2C1271.9 801.3 1271.3 787.6 1272.9 780.8C1273.7 777.3 1273.7 777.2 1271.5 778C1266.3 780 1246.1 790.5 1238.6 795.2C1230.3 800.4 1213.7 812.5 1209.2 816.7C1204.9 820.7 1205.5 818.4 1210.8 811.3C1218.1 801.4 1238.9 781.5 1251 772.7C1266 761.9 1266 761.9 1266.1 756.3C1266.4 746.2 1266 735.6 1265.2 734.8C1263.8 733.4 1238.5 754.6 1223.5 769.9C1219.7 773.8 1216.1 777 1215.5 777C1214.8 777 1214.8 776.7 1215.5 776.2C1216.1 775.8 1219.7 771.7 1223.7 767C1233.5 755.3 1254.2 735.3 1261.9 730.1C1273.1 722.5 1294.5 714.8 1312.5 712C1315.8 711.5 1324.8 711.3 1332.5 711.5ZM1316 717.6C1313.5 718.1 1313.4 718.2 1314.1 723.8C1314.5 726.9 1314.9 732.3 1314.9 735.7C1315 740.4 1315.4 742 1316.4 742C1319 742 1320 739.3 1320.6 730.6C1321.5 719.9 1323 720.5 1323.7 731.9C1324 736.3 1324.7 740 1325.2 740C1326.4 740 1327.7 736.3 1328.5 730.7C1329.4 724.6 1330.7 725.6 1331.6 733C1332.1 737.9 1332.6 739 1334.1 739C1336.7 739 1339.6 735.5 1343.2 728.3C1348.3 717.9 1349.3 718 1348.9 728.8C1348.7 733.9 1348.8 738 1349.3 738C1350.5 738 1356 728.9 1357.2 724.7C1358.5 720.4 1360.5 719.6 1359.6 723.7C1359.3 725.3 1359.4 727.8 1359.8 729.4L1360.6 732.3L1362.9 727.1C1364.1 724.2 1364.9 721.6 1364.7 721.4C1364.5 721.1 1361 720.3 1356.9 719.5C1349.6 718 1320.9 716.7 1316 717.6ZM1310.4 718C1307.9 718.2 1286.6 724.1 1280.9 726.3C1275.4 728.4 1268.3 731.6 1267.2 732.5C1267.1 732.6 1267.9 736.2 1269 740.5C1270.1 744.8 1271 750.8 1271 753.8C1271 758.3 1271.3 759.1 1272.6 758.6C1273.5 758.3 1274.3 758 1274.6 758C1276 758 1279.4 748.4 1280 743C1280.6 736.6 1280.7 736.6 1281.9 739.5C1282.6 741.1 1283.4 744.9 1283.7 747.7C1284 750.6 1284.6 752.8 1285 752.5C1285.3 752.3 1286.2 749.5 1286.9 746.3C1288.7 738.3 1289.9 736.5 1290.1 741.5C1290.1 743.7 1290.5 746.5 1290.8 747.7C1291.5 749.7 1291.7 749.7 1294.6 748.6C1297.3 747.4 1297.9 746.2 1300.6 737.9L1303.5 728.5L1303.8 736.7C1304.1 745.3 1304.8 746.4 1308.3 743.7C1309.7 742.7 1310.1 740.1 1310.7 730.2C1311 723.1 1310.9 718 1310.4 718ZM1366 724.4C1366 725.7 1365.2 729.5 1364.1 732.8L1362.3 738.8L1364.9 739.3C1368.3 740 1369.3 739 1371.9 733C1373.1 730.2 1374.3 728 1374.6 728C1375 728 1374.9 730 1374.6 732.5C1374.2 735 1374.1 737 1374.4 737C1374.7 737 1375.9 735.3 1377 733.2L1379.1 729.5L1378.6 735.7C1378.4 739.2 1378.6 742 1379.1 742C1380.4 742 1390 732.6 1390 731.3C1390 730.2 1381.6 726.2 1373.7 723.6C1367.2 721.4 1366 721.5 1366 724.4ZM1333.1 780.6C1331.5 781.3 1329.2 781.6 1328.1 781.3C1325.3 780.6 1324 783.8 1326.3 785.5C1327.3 786.2 1328 787.7 1328 788.9C1328 794.2 1331.8 797.9 1337.2 798C1345.4 798 1349.7 788.6 1344.1 782.7C1341.4 779.7 1337.1 778.9 1333.1 780.6ZM1296.4 811.4C1295 813.7 1295 814.2 1296.4 817.2C1298.5 821.6 1305.3 826 1310.1 826C1318.4 826 1315.8 815.3 1306.3 810.6C1301.7 808.3 1298.3 808.6 1296.4 811.4Z" />
		<path id="Layer" fill-rule="evenodd" class="shp0" d="M869 742.6C876.1 743.5 886.9 745.9 894 748.2C908.3 752.8 920 760 947.2 781.2C957.4 789.2 968.6 797.4 971.9 799.4C975.3 801.5 978 803.3 978 803.5C978 805.4 959.9 794.7 945 784C919.9 766 909.4 759.6 898.1 755.3C890.5 752.5 878 749.5 869.8 748.5L864 747.9L864 755.5C864 761.2 864.3 763.1 865.3 762.8C865.9 762.5 866.6 761.4 866.8 760.2C867.3 757.1 868.6 757.5 869.3 760.9C869.8 763.2 870.6 763.9 874.1 764.8C876.5 765.4 878.7 765.7 879 765.5C879.4 765.3 880.5 762.4 881.5 759C883.8 751.4 885.4 752.5 884.8 761.3L884.4 767.7L890.3 769.9C895.8 772.1 896.2 772.1 898 770.5C899.1 769.5 900.5 767.2 901.2 765.4C901.9 763.5 902.8 762 903.2 762C904.4 762 904.1 767 902.6 771.2C901.6 774 901.5 775 902.5 775.4C904.2 776 905.4 775.1 908.5 770.5L911.2 766.5L910.7 771C910.4 773.5 909.9 776.4 909.6 777.5C909.2 779.1 910.6 780.5 917.6 785C922.2 788 930 793.6 934.8 797.4C952.7 811.7 968.6 823.3 975.7 827.2C979.8 829.4 982.9 831.5 982.6 831.7C981.8 832.5 957.5 822.6 942.5 815.5C935.4 812.1 923 805.7 915 801.3C901.5 793.8 882.4 785.3 881.4 786.3C881.2 786.5 882.1 788.7 883.4 791.1C889.4 801.8 890.7 817.6 886.6 829.3C880.9 845.4 867.5 856.4 850.2 859C823 863.2 797.9 841.6 798 814C798 807.7 800.3 797.3 802.5 793C803.4 791.3 803.8 790 803.4 790C803 790 797.7 792.4 791.6 795.4C777.3 802.3 769.5 808.3 753.5 824.6C742.7 835.5 739.7 838 736 839.1C733.5 839.8 729.9 841.4 727.9 842.6C722.4 846 712.6 849.9 704.3 852C695.5 854.3 680.2 855.4 674 854.2C669.7 853.4 669.9 853.4 678.5 852.7C689.3 851.9 700.3 849.2 709.1 845.2L715.5 842.3L698.9 842.8C688.7 843.1 678.4 842.8 672.4 842C658.6 840.3 656.6 839 668.6 839.7C674.1 840 680.4 839.9 682.6 839.5L686.5 838.7L683.5 838C681.7 837.5 685.8 837.2 693.5 837.1L706.5 836.9L701 835.4C694 833.6 678 825.8 675.5 822.9C673.9 821.1 674.8 821.4 680.8 824.4C688.7 828.4 695.6 830.4 704 831.3L709.5 831.9L705 830.5C696.5 827.7 684.3 820.9 678.7 815.9C671.8 809.8 671.1 807.3 677.8 812.8C683.1 817.3 688.8 820.4 696.9 823.1C704.6 825.8 705.3 825.4 699 821.9C690.9 817.5 689.2 815.4 696 818.1C707.4 822.6 713.8 824.2 722.5 824.7L731.5 825.1L724.7 822.6C717.9 820.1 711 816.2 711 814.7C711 813.7 711.5 813.8 714.4 815.1C716.4 816 717.3 816 718.4 815.1C719.8 814 719.7 813.5 718.2 811.2L716.5 808.5L719.1 810.2C721.7 811.8 721.9 811.8 723.5 810C725.2 808.1 725.2 807.9 722.6 804.5C719.4 800.3 720.3 799.9 724.2 803.7L727 806.4L729.5 804L731.9 801.5L730 796C728.9 793 728.1 788.5 728.1 786L728.2 781.5L729.1 785C730.3 789.4 734.2 798 734.9 797.9C735.2 797.9 738.5 794.4 742.2 790.1C748.6 782.6 748.8 782.2 748 778.7C747.2 774.9 748.4 773.5 749.5 777C749.8 778.1 750.6 779 751.1 779C752.3 779 752.2 776 750.9 772.2C750.3 770.5 750 768.3 750.2 767.3C750.5 766 751.2 766.7 752.4 769.7C753.4 772.1 754.5 774 754.9 774C755.2 774 757.2 772.4 759.2 770.5C762.4 767.5 762.9 766.6 762.4 764C762 762.1 762.2 761 762.9 761C763.5 761 763.8 759.8 763.4 757.7L762.9 754.5L765.1 758.5C766.3 760.7 767.4 762.6 767.5 762.8C767.7 763 770 761.6 772.7 759.7C786.2 750 806.3 743.6 828 742C838.7 741.3 860.8 741.5 869 742.6ZM824.5 748C815 749.1 804.8 751 803.7 752C803.2 752.4 804.1 754 805.5 755.6L808.1 758.5L807.6 755.5L807 752.5L809 755C817.9 766 817.2 765.4 818.7 763.4C819.4 762.4 820 760.5 820.1 759.1C820.2 756.7 820.3 756.7 821.2 759.7C821.8 761.5 822.9 763 823.6 763C825.3 763 827.3 755.5 826.6 752.4C826.2 751.1 826.4 750 826.9 750C827.8 750 828.2 751.4 829.6 759.3C830.2 762.9 830.5 763.1 832.9 762.5C836.3 761.6 836.3 761.6 837 756.2C837.7 751.3 838.4 751.9 839.5 758.2C839.8 760.5 840.6 762 841.5 762C842.9 762 845 756.4 845 752.7C845 751.8 845.5 751 846 751C846.6 751 847 752.1 847 753.4C847 754.7 847.3 757.2 847.6 758.9C848.3 762 848.4 762.1 853.4 761.8L858.5 761.5L859.9 755.3C860.7 751.8 861 748.7 860.6 748.3C859.5 747.2 834 747 824.5 748ZM784.5 759C783.5 759.1 776.1 763.1 772.7 765.5C771 766.7 771.1 766.8 773.2 768.2C778.2 771.4 786.5 774.1 788.6 773.3L790.7 772.5L788.1 765.7C786.7 762 785.1 759 784.5 759ZM858.7 801.5C857.1 802.3 854.9 802.9 853.7 802.7C852.1 802.6 851.4 803.1 851.2 804.7C851 806 851.3 807 851.8 807C852.3 807 853 808.6 853.3 810.6C854.7 819 863.2 821.9 869.1 816.1C872.9 812.3 873 808.1 869.3 804.1C865.8 800.4 862.4 799.5 858.7 801.5ZM817.7 829.7C816.4 830.9 817 835.5 818.9 838.6C822.6 844.7 833.4 847.7 835.9 843.2C837.8 839.8 834 833.2 828.6 830.6C825.2 829 818.9 828.4 817.7 829.7Z" />
		<path id="Layer" class="shp0" d="M1411 826.4C1408.5 827.2 1402 829.4 1396.5 831.5C1379.9 837.7 1365.2 842 1353 844.1C1337.2 847 1314.1 846.4 1295.9 842.6C1275.8 838.5 1245.7 835 1230.5 835C1223.1 835 1217 835.4 1217 835.8C1217 836.2 1222.3 837.2 1228.8 837.9C1246.5 839.8 1256.9 842.4 1282.3 851.1C1306.6 859.5 1317 862 1328.2 862C1340 862 1356.8 859.2 1374.5 854.3C1379.5 852.9 1384.7 851.8 1386.1 851.8C1389.9 851.9 1398.3 856.4 1401.3 859.9C1406.3 865.8 1405.2 860.4 1399.8 852.3C1398.3 850 1397 847.8 1397 847.4C1397 845.9 1407.3 847.8 1410.1 849.9C1414.1 852.9 1414.8 852 1412.1 847.4C1410.9 845.4 1410.1 843.5 1410.4 843.3C1411.7 842 1418.1 844.4 1421.8 847.6C1426.4 851.5 1427.1 850.7 1424.5 844.4C1423.2 841.2 1423.2 840.9 1424.8 840.2C1427.1 839.3 1449.6 839.4 1454.3 840.3C1456.7 840.8 1458 840.7 1458 840C1458 838.3 1446.3 830.2 1440.2 827.9C1433.1 825.2 1417.8 824.4 1411 826.4Z" />
		<path id="Layer" class="shp0" d="M969.5 842.6C968.4 842.7 961.9 843.4 955 844C929.9 846.3 919.6 848.6 886 859.5C852.7 870.3 833.1 872.8 807 869.6C790 867.5 775.9 864.4 763 859.9C756.7 857.8 750.4 855.6 749 855.2C745.9 854.1 731.9 856.1 718.1 859.6C707.4 862.2 692.4 867.6 691.5 869C691.3 869.4 695.9 870.5 701.8 871.4C715.4 873.4 740 877 746.5 877.9C751.8 878.6 752.3 879.5 750.6 884.7C749.5 888 751.1 887.4 754 883.5C756.1 880.6 757.1 880.1 760.4 880C764 880 764.2 880.2 763.6 882.5C761.5 890.9 761.4 890.7 765.5 886.1L769.4 881.8L776.4 882.5C787.2 883.5 787 883.4 787 889.3L787.1 894.5L789.7 889.2L792.3 884L799.9 884C808.2 884 829.9 882.4 834.2 881.4C836.8 880.9 836.9 881 836.3 884.4C836 886.4 836 888 836.2 888C836.5 888 837.9 886.3 839.2 884.2C841.7 880.5 842.1 880.4 851.6 878.6C868 875.6 884.4 871.1 903.4 864.2C936 852.5 955.1 847.1 974.5 844L985.5 842.2L978.5 842.2C974.7 842.3 970.6 842.4 969.5 842.6Z" />
		<path id="Layer" class="shp0" d="M1238.7 1035.5C1243.1 1040.1 1246.3 1044.7 1249.2 1050.8C1253.1 1058.8 1253.5 1060.2 1253.8 1069.1C1254.2 1077.1 1253.8 1080 1251.9 1086.1C1249.1 1094.8 1241.8 1106.2 1235.3 1112C1231 1115.8 1219.9 1123.5 1217.5 1124.4C1217 1124.6 1216.7 1125 1217.1 1125.3C1217.4 1125.7 1221.8 1123.9 1227 1121.4C1244.4 1112.8 1255.2 1099.1 1258.8 1080.8C1260.1 1074.1 1260.2 1071.6 1259.2 1065.6C1257 1052.9 1249.6 1040.8 1239.1 1033C1236.2 1030.8 1233.5 1029 1233.1 1029C1232.8 1029 1235.3 1031.9 1238.7 1035.5Z" />
		<path id="Layer" class="shp0" d="M1006.1 1073.8C1005.6 1074.7 1004.4 1078.5 1003.5 1082C999.6 1096.9 1003.8 1111.1 1014.8 1121C1022.1 1127.6 1034.3 1133.5 1044.5 1135.6C1048.9 1136.4 1056.3 1138 1060.9 1139.1C1065.6 1140.1 1069.5 1140.8 1069.7 1140.6C1070.7 1139.6 1062.3 1135.8 1050 1131.5C1034.7 1126.2 1030.2 1123.9 1020.8 1116.4C1015.5 1112.1 1013.5 1109.6 1010.8 1104.3C1007.6 1097.7 1007.5 1097.2 1007.5 1084.8C1007.5 1077.7 1007.4 1072 1007.3 1072C1007.2 1072 1006.6 1072.8 1006.1 1073.8Z" />
		<path id="Layer" class="shp0" d="M1206.2 1089C1202.6 1091.2 1185 1107.8 1185 1109C1185 1109.4 1186.9 1109.4 1189.3 1108.8C1193.6 1107.9 1199.5 1104.9 1208.7 1099C1213 1096.4 1215.2 1095.6 1221 1095.2C1224.8 1095 1228 1094.4 1228 1094C1228 1093.3 1216.2 1088.5 1212 1087.5C1210.4 1087.2 1208.3 1087.7 1206.2 1089Z" />
		<path id="Layer" class="shp0" d="M1065.8 1101.5C1060.9 1102.8 1048 1108.5 1048 1109.4C1048 1109.6 1051.5 1109.8 1055.8 1109.9C1069.6 1109.9 1080.4 1112.1 1101.8 1119.3C1114.6 1123.7 1117.2 1124.3 1118 1123.1C1119.1 1121.2 1117.9 1118.9 1112.7 1113.3C1104.5 1104.4 1093.1 1099.9 1079.2 1100.1C1074.4 1100.1 1068.4 1100.8 1065.8 1101.5Z" />
		<path id="Layer" class="shp0" d="M1112.5 1250.7C1111.4 1251 1109.5 1252.2 1108.2 1253.3C1106.2 1255.2 1104.5 1255.5 1097.7 1255.6C1090 1255.8 1088.9 1256.1 1078.5 1261.1C1068.2 1266 1067 1266.4 1059.8 1266.4C1052.7 1266.5 1052 1266.3 1050.1 1263.8L1048 1261.1L1040.2 1265.7C1031.8 1270.6 1020.6 1278.5 1015.1 1283.4C1008.3 1289.4 996.8 1301.5 995.4 1304.2L993.9 1307L999.2 1307.1C1002.1 1307.1 1011.7 1307.5 1020.5 1307.9C1040.4 1308.8 1084.7 1306.8 1103.7 1304.1C1122.1 1301.5 1126.8 1301 1145 1300.4C1153.5 1300.1 1162.5 1299.6 1164.9 1299.2C1172.5 1298 1227.9 1299.5 1232.8 1301C1237.2 1302.4 1242 1306.9 1242 1309.6C1242 1314 1232.5 1326.1 1227.9 1327.5C1226.8 1327.9 1226 1328.8 1226 1329.6C1226 1330.4 1225.6 1330.9 1225.2 1330.6C1224.7 1330.3 1221.9 1332 1218.9 1334.4C1202.1 1347.6 1191.9 1351.5 1165.8 1355.1C1140.8 1358.5 1115.7 1356.7 1083.9 1349.2C1071 1346.1 1035.7 1335.3 1029.1 1332.4C1022.9 1329.6 1024.9 1331.7 1035.4 1338.9C1042.5 1343.7 1046.4 1345.8 1047.7 1345.4C1049 1345 1049.1 1345.1 1048.2 1345.7C1047.3 1346.4 1050.6 1348.4 1059.2 1352.4C1066 1355.5 1072.2 1358.5 1073.1 1359C1074 1359.5 1076.4 1360.2 1078.4 1360.5C1081.7 1361.2 1084.5 1363 1082.2 1363C1079.7 1363 1056.7 1354.4 1048.2 1350.3C1036.1 1344.5 1036 1344.4 1039 1347C1045.8 1352.9 1066.1 1362.9 1082.5 1368.3C1090.8 1371.1 1108.2 1375.3 1115.9 1376.4C1145.7 1380.8 1179.1 1377.7 1207.5 1368C1219.7 1363.8 1242 1353.4 1242 1352C1242 1351.5 1238.4 1352.7 1234 1354.6C1229.5 1356.4 1221.4 1359.4 1215.9 1361.1C1207.9 1363.6 1205.6 1364 1204.7 1363C1203.8 1362 1203.8 1361.9 1204.8 1362.4C1206.8 1363.6 1222 1358.1 1231.5 1352.8C1233.1 1351.8 1237.9 1349.4 1242 1347.3C1246.1 1345.2 1250 1343 1250.6 1342.4C1251.3 1341.8 1254.5 1339.6 1257.9 1337.4C1261.4 1335.2 1263.8 1333 1263.5 1332.3C1262 1328.1 1259.9 1312.8 1260.3 1308.7C1260.6 1304.8 1261.3 1303.3 1263.6 1301.4C1267.2 1298.5 1273.8 1296.2 1281.5 1295.2L1287.5 1294.5L1282.7 1292.7C1280.1 1291.7 1278.2 1290.4 1278.6 1289.9C1278.9 1289.4 1281.7 1289 1284.8 1289C1290.4 1289 1297.6 1287.7 1298.7 1286.6C1299.7 1285.6 1296.9 1280.4 1293.2 1276.4C1286.6 1269.4 1270.5 1260.4 1256.6 1256C1241.6 1251.1 1232.7 1250 1210.6 1250C1189 1250.1 1180.6 1251.1 1174.3 1254.3C1168.5 1257.4 1161.5 1257.4 1151 1254.5C1139.2 1251.1 1134.2 1250.4 1132.7 1251.9C1131.1 1253.5 1122.7 1253.3 1120.4 1251.5C1118.5 1250.1 1116.2 1249.8 1112.5 1250.7Z" />
	</g>
</svg>